<?xml version="1.0" encoding="UTF-8" standalone="no"?>
<!-- Created with Inkscape (http://www.inkscape.org/) -->

<svg
   xmlns:dc="http://purl.org/dc/elements/1.1/"
   xmlns:cc="http://creativecommons.org/ns#"
   xmlns:rdf="http://www.w3.org/1999/02/22-rdf-syntax-ns#"
   xmlns:svg="http://www.w3.org/2000/svg"
   xmlns="http://www.w3.org/2000/svg"
   xmlns:sodipodi="http://sodipodi.sourceforge.net/DTD/sodipodi-0.dtd"
   xmlns:inkscape="http://www.inkscape.org/namespaces/inkscape"
   width="178.99115mm"
   height="242.75554mm"
   viewBox="0 0 634.22061 860.15742"
   id="svg2"
   version="1.1"
   inkscape:version="0.91 r13725"
   sodipodi:docname="tigerhead_3.svg">
  <defs
     id="defs4" />
  <sodipodi:namedview
     id="base"
     pagecolor="#ffffff"
     bordercolor="#666666"
     borderopacity="1.0"
     inkscape:pageopacity="0.0"
     inkscape:pageshadow="2"
     inkscape:zoom="0.35"
     inkscape:cx="-147.78458"
     inkscape:cy="421.10182"
     inkscape:document-units="px"
     inkscape:current-layer="layer1"
     showgrid="false"
     fit-margin-top="0"
     fit-margin-left="0"
     fit-margin-right="0"
     fit-margin-bottom="0"
     inkscape:window-width="1536"
     inkscape:window-height="811"
     inkscape:window-x="1432"
     inkscape:window-y="-8"
     inkscape:window-maximized="1" />
  <metadata
     id="metadata7">
    <rdf:RDF>
      <cc:Work
         rdf:about="">
        <dc:format>image/svg+xml</dc:format>
        <dc:type
           rdf:resource="http://purl.org/dc/dcmitype/StillImage" />
        <dc:title></dc:title>
      </cc:Work>
    </rdf:RDF>
  </metadata>
  <g
     inkscape:label="Layer 1"
     inkscape:groupmode="layer"
     id="layer1"
     transform="translate(-59.927436,-93.306629)">
    <g
       id="g4147"
       transform="translate(74.285714,68.571429)">
      <g
         id="g4157">
        <path
           inkscape:connector-curvature="0"
           id="path4153"
           d="m 242.3839,884.40775 c -1.98303,-1.12638 -4.60353,-2.97903 -7.47675,-5.28597 -2.37942,-1.91043 -2.71137,-2.09271 -2.79588,-1.53513 -0.13092,0.86412 -0.52341,0.80043 -2.53215,-0.41085 -4.00893,-2.41737 -9.33675,-6.83613 -15.72966,-13.04571 -3.61611,-3.51243 -4.76487,-4.82244 -5.32278,-6.06993 -0.558,-1.24773 -1.11234,-1.87977 -2.57037,-2.93064 -2.92827,-2.11053 -6.90978,-6.98079 -16.19508,-19.81017 -6.11289,-8.44611 -8.78943,-11.89395 -8.92275,-11.49402 -0.0571,0.17124 2.15169,4.68369 4.90839,10.02768 2.7567,5.34399 5.55099,10.86384 6.20958,12.26634 0.65859,1.4025 2.67687,5.04291 4.48506,8.08983 5.07081,8.54457 7.64472,14.00109 6.93792,14.70789 -0.21744,0.21744 -1.03902,0.17418 -2.68953,-0.14163 -5.07066,-0.97017 -10.94409,-3.41883 -16.19415,-6.75144 -1.64373,-1.0434 -4.65435,-2.74593 -6.6903,-3.78339 -9.09975,-4.63701 -18.37986,-12.09237 -27.8505,-22.37427 -5.11717,-5.55552 -6.70259,-7.65405 -10.19854,-13.49931 -5.24087,-8.76273 -7.03678,-12.0738 -8.50323,-15.67704 -0.81044,-1.99134 -3.21352,-7.06314 -5.34019,-11.27064 -4.80461,-9.50568 -5.68237,-11.76549 -8.85607,-22.8 -2.12855,-7.40064 -2.60081,-9.43956 -2.88373,-12.45 -0.47862,-5.09274 -0.657,-6.2298 -0.93303,-5.94756 -0.6718,0.68697 -3.52996,14.05032 -4.30971,20.15007 -0.66185,5.17749 -0.61313,11.65806 0.12352,16.43076 0.32825,2.1267 0.59825,5.04774 0.6,6.49116 0.002,1.8894 0.37539,4.49412 1.33214,9.3 2.01568,10.12506 2.00223,14.71581 -0.0352,12.00057 -1.12176,-1.49499 -9.68564,-10.96914 -10.05611,-11.12499 -0.13073,-0.055 -0.23769,0.89793 -0.23769,2.11764 0,1.3479 -0.1532,2.42718 -0.39061,2.75187 -0.357353,0.4887 -0.517028,0.38574 -1.875002,-1.20912 -0.816414,-0.95883 -3.154224,-3.56967 -5.195136,-5.80185 -9.957876,-10.8912 -11.790702,-14.31876 -15.039924,-28.12611 -0.668832,-2.84217 -1.878135,-7.49967 -2.68734,-10.35 -3.935868,-13.86366 -3.879525,-13.37799 -3.929067,-33.86757 -0.04546,-18.80193 -0.0243,-19.12128 2.094333,-31.61487 0.643551,-3.795 1.336242,-8.7225 1.539315,-10.95 0.312597,-3.42891 0.686262,-5.17185 2.436552,-11.36532 1.137033,-4.02342 2.681532,-8.72586 3.432219,-10.4499 0.750687,-1.72401 1.298139,-3.2013 1.21656,-3.28287 -0.08158,-0.0816 -0.720135,0.83076 -1.419018,2.0274 -4.019361,6.88209 -7.10766,16.15263 -7.635588,22.92069 -0.208836,2.67726 -0.892542,4.95 -1.489107,4.95 -0.553485,0 -2.652372,-5.42463 -3.888525,-10.05 -1.640154,-6.13704 -3.594,-12.42447 -3.889473,-12.51621 -0.148395,-0.0461 -0.445911,0.42486 -0.661146,1.04655 -0.72291,2.08809 -1.918974,7.92801 -1.926378,9.40578 -0.0091,1.82661 -0.482052,3.94281 -1.089075,4.87353 -0.387222,0.59373 -0.525396,0.64275 -0.845721,0.3 -0.657399,-0.70338 -2.748882,-6.26472 -3.595137,-9.55965 -0.444969,-1.7325 -1.403685,-5.1075 -2.130483,-7.5 -0.726795,-2.3925 -1.886895,-6.51 -2.578002,-9.15 -1.192293,-4.55451 -1.263162,-5.06655 -1.385778,-10.01217 -0.142233,-5.73681 0.198759,-9.97503 1.316919,-16.36827 1.113228,-6.36501 1.85709,-9.02508 3.486891,-12.4692 0.81993,-1.73271 2.085003,-4.90245 2.811267,-7.04388 0.960054,-2.83077 1.941447,-4.94991 3.595449,-7.7637 4.643871,-7.90017 6.410949,-10.29867 12.629814,-17.14278 10.802508,-11.88861 13.62324,-14.10462 26.099802,-20.50443 6.524919,-3.34692 8.491389,-4.72251 8.491389,-5.93988 0,-0.83085 -1.29302,-2.85288 -2.56151,-4.00569 -1.86894,-1.69851 -11.184724,-12.58221 -12.198766,-14.25189 -3.416376,-5.62527 -5.969184,-15.82539 -6.437766,-25.72311 -0.158616,-3.35034 -0.119586,-4.125 0.207831,-4.125 0.221715,0 2.368965,1.32624 4.771665,2.94723 2.4027,1.62096 5.043546,3.18831 5.868546,3.48297 0.825,0.29466 2.128389,0.78915 2.89642,1.09884 1.99942,0.80619 5.97763,1.68693 10.00365,2.21469 2.57933,0.33813 6.3833,0.45627 14.68974,0.45627 10.51751,0 11.71505,-0.0566 19.40964,-0.91815 4.5103,-0.50499 10.56305,-1.0362 13.45055,-1.18047 8.06523,-0.40299 12.35802,-1.54089 17.61045,-4.66806 5.65386,-3.36618 8.60916,-5.86209 17.33955,-14.64411 8.72208,-8.77362 10.86237,-10.69878 17.4,-15.65076 2.145,-1.62474 4.6425,-3.58554 5.55,-4.35732 2.52915,-2.15088 5.03715,-3.65637 8.44434,-5.06895 1.70811,-0.70815 6.14316,-2.80401 9.85566,-4.65744 l 6.75,-3.3699 11.4,-3.19269 c 6.27,-1.75596 13.23708,-3.52971 15.48237,-3.94167 4.23147,-0.77637 15.7593,-4.17354 18.4605,-5.44017 2.8632,-1.34262 4.65204,-3.9459 7.32963,-10.66677 3.23154,-8.11134 5.29113,-15.25701 6.1662,-21.39354 0.45033,-3.15786 0.46797,-4.10916 0.14367,-7.74573 -0.50811,-5.69814 -1.12692,-9.08133 -1.98534,-10.85427 -0.50688,-1.04688 -2.16378,-2.93334 -5.48505,-6.24495 -5.484,-5.46807 -5.11383,-5.28756 -10.86198,-5.29668 -6.00948,-0.01 -12.21222,1.25271 -20.0853,4.08729 -8.022,2.88819 -14.77545,6.64941 -20.33481,11.32509 -5.4516,4.58508 -21.47772,21.72906 -24.32226,26.01879 -2.23077,3.36417 -6.18126,10.30782 -7.75695,13.63416 -1.69332,3.57462 -2.16327,5.8041 -2.3982,11.37765 -0.23937,5.67933 0.0201,7.24131 2.32794,14.02149 0.99654,2.92755 1.76862,5.62755 1.71573,6 -0.0821,0.5784 -0.2493,0.66297 -1.14615,0.57981 -2.92242,-0.27096 -8.13897,-2.53299 -15.981,-6.92985 -2.34795,-1.31643 -5.05122,-2.69115 -6.00729,-3.05487 -2.36919,-0.90141 -2.54634,-0.67845 -1.93332,2.43318 0.38103,1.93398 1.10436,3.67485 3.58803,8.63559 4.38108,8.7504 4.93824,10.78338 3.30858,12.07221 -1.18854,0.93999 -2.57526,0.6795 -8.72016,-1.63803 -6.14034,-2.31582 -8.54328,-3.52857 -11.1156,-5.60994 -1.8624,-1.5069 -6.08307,-3.47535 -6.28752,-2.93235 -0.054,0.14358 1.26222,3.25254 2.925,6.90882 1.66281,3.65631 3.02328,6.82857 3.02328,7.04949 0,1.10613 -4.0776,0.73383 -8.47821,-0.77409 -5.03427,-1.72506 -11.6551,-4.90977 -15.70921,-7.55631 -2.32399,-1.51713 -6.76049,-3.8565 -7.31362,-3.8565 -0.47352,0 0.43169,1.608 2.7021,4.8 1.11493,1.5675 2.43986,3.5925 2.94428,4.5 0.92591,1.66581 2.45466,5.85591 2.45466,6.72789 0,0.6822 -1.07077,0.59763 -3.95951,-0.31275 -3.54037,-1.1157 -7.29174,-2.93631 -11.79049,-5.72208 -2.145,-1.32825 -4.54319,-2.69583 -5.32932,-3.03909 -3.49902,-1.52772 -16.4954,-9.97902 -18.91924,-12.30282 -1.63067,-1.56336 -4.95384,-5.53119 -6.7234,-8.0277 -5.602867,-7.90449 -9.603382,-16.53405 -12.543952,-27.05871 -1.982037,-7.09392 -2.834088,-11.39901 -2.834088,-14.31954 0,-2.01582 -0.08024,-2.31669 -0.856005,-3.20976 -0.470802,-0.54198 -1.012815,-1.28406 -1.20447,-1.64907 -0.246882,-0.47016 -0.981192,-0.8475 -2.518995,-1.29444 -5.931276,-1.7238 -8.421111,-3.2142 -9.601377,-5.74728 -1.077009,-2.3115 -1.544955,-4.54776 -1.557825,-7.44465 -0.01236,-2.78175 0.465618,-4.04841 1.943187,-5.14959 1.02315,-0.76251 4.472556,-1.89609 7.120485,-2.34 1.19625,-0.20055 2.175,-0.49128 2.175,-0.64608 0,-0.15483 -1.685814,-2.72799 -3.746253,-5.71818 -2.945583,-4.27476 -4.057938,-5.64663 -5.204616,-6.41883 -0.802101,-0.54018 -2.002359,-1.60014 -2.667243,-2.35548 -2.363508,-2.68509 -6.486384,-10.26495 -8.154684,-14.99229 -1.4703,-4.16628 -3.978297,-13.11369 -3.803505,-13.56918 0.08661,-0.22572 0.397956,-0.41025 0.691887,-0.4101 0.293928,1.5e-4 3.008007,1.48515 6.031284,3.3 3.02328,1.81485 5.562393,3.29973 5.642475,3.29973 0.08008,0 5.63724,3.27375 12.349242,7.275 7.878267,4.6965 14.969589,8.66046 20.007523,11.18391 6.21721,3.11415 7.82271,4.03917 7.89643,4.54962 0.0509,0.35241 0.31881,0.72756 0.59536,0.8337 0.27655,0.10611 3.58603,0.45933 7.35441,0.78492 l 6.85159,0.59199 4.40305,-0.93804 c 2.42168,-0.51591 4.45032,-0.98373 4.50809,-1.03959 0.27248,-0.26352 -0.45685,-0.83418 -2.1519,-1.68369 -4.9081,-2.45985 -19.25737,-10.14441 -21.65314,-11.59605 -1.485,-0.89979 -4.59,-2.65137 -6.9,-3.89241 -6.028926,-3.23907 -6.884208,-3.86463 -12.459633,-9.11319 -4.408755,-4.15032 -6.004428,-5.98677 -7.653552,-8.80845 -0.295359,-0.50535 -0.602703,-0.46932 -5.4,0.63321 -5.030862,1.1562 -5.154465,1.16904 -11.236815,1.16625 -8.164407,-0.004 -10.956864,-0.60525 -14.741736,-3.17553 -0.948939,-0.6444 -1.853394,-1.17165 -2.009901,-1.17165 -0.839451,0 -4.97622,12.3837 -6.163209,18.45 -0.855879,4.37409 -2.285154,15.57951 -2.285154,17.91546 0,2.18724 -0.364953,3.25425 -0.723012,2.11389 -0.09142,-0.29115 -0.865686,-3.83685 -1.720599,-7.87935 -1.423038,-6.72891 -1.553664,-7.67955 -1.545849,-11.25 0.01557,-7.1085 1.491816,-17.39676 3.071208,-21.40371 0.340038,-0.86268 0.618252,-1.81062 0.618252,-2.10654 0,-0.58278 -2.361225,-2.43975 -3.102237,-2.43975 -0.783657,0 -4.448004,10.25409 -5.727753,16.02822 -0.946692,4.2714 -2.586522,15.62637 -2.830773,19.60167 -0.104082,1.69395 -0.324237,3.11145 -0.489237,3.15 -0.165,0.0385 -1.072122,-3.64239 -2.015829,-8.17989 -1.994856,-9.59163 -2.080158,-11.07231 -1.132032,-19.65 0.784464,-7.09704 1.307994,-9.7971 2.578725,-13.29954 1.170216,-3.22542 1.355484,-5.13786 0.632667,-6.53082 -0.836958,-1.61292 -3.530583,-4.61964 -4.13859,-4.61964 -0.818853,0 -4.798797,3.88611 -7.058016,6.8916 -2.406666,3.20166 -4.732128,7.8252 -5.511633,10.9584 -0.328401,1.32 -0.872316,4.28664 -1.208694,6.5925 -0.581385,3.98538 -0.983982,5.29812 -1.328763,4.33266 -0.476157,-1.33332 -0.79272,-3.52155 -0.95121,-6.57516 -0.375099,-7.22694 1.778592,-14.43276 6.472086,-21.65433 1.176981,-1.81095 1.948434,-2.6139 3.602961,-3.75 1.157919,-0.79512 2.105988,-1.58703 2.106819,-1.7598 0.0018,-0.39447 -2.027865,-2.35197 -2.903769,-2.80041 -1.104027,-0.5652 -2.882898,-0.38208 -4.61082,0.47466 -3.4029,1.68723 -8.829387,8.20671 -11.385408,13.67865 -1.421526,3.04323 -1.916151,4.93647 -2.853099,10.9206 -0.760767,4.85886 -1.109421,5.85036 -1.601844,4.55517 -1.255812,-3.30303 -1.205532,-11.73321 0.098196,-16.46454 1.328736,-4.82208 5.283744,-12.40662 7.470879,-14.32695 0.552228,-0.48486 2.845296,-2.13975 5.09571,-3.67752 2.250417,-1.53777 4.091664,-2.95797 4.091664,-3.15603 0,-0.19803 -0.592134,-1.24308 -1.315851,-2.32233 -0.723717,-1.07925 -1.382127,-2.14338 -1.463133,-2.36472 -0.355029,-0.97011 -5.793222,5.3154 -8.501016,9.82554 -0.900807,1.50042 -1.936542,3.04863 -2.301636,3.44052 -0.611016,0.65586 -0.672366,0.66804 -0.771507,0.15324 -0.154764,-0.80361 0.462414,-3.83802 1.34682,-6.62175 1.070181,-3.36846 3.987873,-9.14694 6.098352,-12.07773 l 1.78422,-2.47773 -0.480822,-2.39727 c -0.3243,-1.61689 -0.616656,-2.39727 -0.898098,-2.39727 -1.403202,0 -6.582303,3.54549 -9.724254,6.657 -2.741832,2.71527 -4.50465,4.9782 -7.125834,9.14739 -2.807103,4.4649 -3.644457,4.89234 -3.040077,1.55175 1.21671,-6.72504 5.397039,-15.24951 9.872595,-20.132 0.870108,-0.94922 3.388014,-3.14903 5.595351,-4.88846 2.960004,-2.33255 4.535205,-3.83092 6.001719,-5.70901 1.392393,-1.78316 2.13597,-2.50292 2.480778,-2.40131 3.186726,0.93909 9.942393,1.69469 9.942393,1.11204 0,-0.14443 -1.11375,-0.80583 -2.475,-1.46978 -1.36125,-0.66395 -3.7575,-2.03228 -5.325,-3.04074 -1.5675,-1.00846 -3.9975,-2.38434 -5.4,-3.05752 -1.4025,-0.67317 -4.17,-2.19042 -6.15,-3.37166 -8.889963,-5.30362 -15.381222,-14.66239 -17.719932,-25.5477 -0.823956,-3.83502 -0.700212,-10.02043 0.275004,-13.74629 2.034894,-7.77442 9.607716,-18.09908 16.716135,-22.7905 7.375494,-4.86769 15.418902,-7.49305 31.832838,-10.39018 9.980196,-1.76156 11.549619,-1.92766 17.045955,-1.80411 2.7225,0.0612 8.73,0.11573 13.35,0.12117 l 8.4,0.01 3.9,-1.00675 c 8.619573,-2.22507 16.732959,-5.66833 23.91473,-10.14923 9.07845,-5.6643 12.02633,-6.85216 14.90824,-6.00736 0.80728,0.23665 2.52737,1.17443 3.82241,2.08395 1.29504,0.90952 4.37962,2.73173 6.85462,4.04934 2.475,1.31762 5.68952,3.14941 7.14338,4.07066 3.285,2.08156 4.30229,2.42472 6.62502,2.23484 1.84999,-0.15124 6.27626,-1.22772 7.0731,-1.72019 0.34345,-0.21227 0.12534,-0.59313 -1.06579,-1.86107 -0.8237,-0.8768 -1.89094,-2.11482 -2.37165,-2.75115 l -0.87403,-1.15696 -1.70424,0.19281 c -3.25047,0.36775 -5.50137,-0.942 -8.97707,-5.22358 -2.53219,-3.1193 -4.56273,-5.12081 -7.37628,-7.27081 -5.2447,-4.00779 -7.62244,-8.62436 -7.62244,-14.79953 0,-8.31609 4.82331,-16.36732 17.49326,-29.20035 9.37814,-9.49884 17.09692,-15.64563 23.75674,-18.91849 6.76404,-3.32408 15.25629,-6.29464 19.95,-6.97844 2.0016,-0.2916 2.51496,-0.25653 4.65,0.3177 1.71237,0.46055 4.7637,0.82235 10.65,1.26277 8.99457,0.67299 9.30615,0.7353 16.82352,3.36441 4.53336,1.58549 10.25646,2.93745 10.67271,2.52121 0.11256,-0.11257 0.0132,-0.57013 -0.22077,-1.01678 -0.6501,-1.24088 -5.90142,-6.60273 -6.65781,-6.79793 -0.3672,-0.0948 -0.87861,-0.54732 -1.13646,-1.00568 -0.25785,-0.45836 -1.53753,-1.5716 -2.84376,-2.47386 -1.83801,-1.26961 -3.08748,-1.85627 -5.52687,-2.59501 -3.1107,-0.94204 -3.86349,-1.42265 -3.54174,-2.261135 0.19776,-0.515337 8.82708,-4.422282 11.78118,-5.333949 3.18903,-0.984168 5.94426,-1.073649 10.8,-0.350745 11.71548,1.744148 21.71565,5.379428 29.85,10.851109 2.83404,1.90635 4.94064,3.03956 5.18895,2.79127 0.28167,-0.28168 -0.70314,-3.1781 -1.77183,-5.21106 -2.19627,-4.178 -6.42768,-8.366597 -12.64212,-12.514229 -1.85625,-1.238895 -3.375,-2.377002 -3.375,-2.529126 0,-0.727636 1.58667,-3.237859 2.74974,-4.350273 2.66352,-2.547504 5.82948,-3.521025 11.35026,-3.490152 10.95612,0.06127 26.92032,5.29617 37.16481,12.186888 1.87815,1.263288 3.54966,2.29689 3.71451,2.29689 0.55968,0 -0.0216,-2.467563 -1.09065,-4.630899 -2.4009,-4.857903 -6.50859,-9.149415 -12.68211,-13.249638 -5.94507,-3.948513 -7.30542,-5.656959 -5.74605,-7.21635 1.28943,-1.289418 3.62388,-1.479402 12.14286,-0.988224 8.74749,0.504351 6.20253,0.542331 42.17481,-0.629409 10.80786,-0.352047 11.77458,-0.27543 12.67089,1.004229 0.6171,0.881022 0.55509,2.501736 -0.15567,4.068051 -0.32637,0.719271 -0.5934,1.428021 -0.5934,1.575 0,0.301176 7.51722,0.368796 8.95827,0.08058 0.80547,-0.161091 1.23177,-0.674568 3.1125,-3.749127 4.2474,-6.943416 4.42896,-7.177872 6.39234,-8.255262 0.99546,-0.546243 4.09974,-1.657467 6.89841,-2.469393 2.79867,-0.811923 6.68154,-2.040486 8.6286,-2.730138 2.22342,-0.787536 4.57827,-1.385118 6.33123,-1.606668 2.57688,-0.325677 2.88591,-0.438438 4.026,-1.468956 1.95186,-1.764243 4.33386,-2.786256 13.82304,-5.93085 9.2769,-3.074247 15.5211,-5.410239 19.82961,-7.418397 1.4025,-0.653691 5.91816,-3.439239 10.03479,-6.190109 7.90044,-5.279331 13.93044,-8.564285 17.1993,-9.369618 3.21129,-0.791152 3.04395,-0.96263 4.41591,4.525175 0.93093,3.72373 1.30089,4.777894 1.65,4.701413 0.2475,-0.05422 1.34706,-0.491623 2.44344,-0.972 2.85447,-1.250656 5.93748,-1.933186 6.42249,-1.421834 0.20472,0.215831 1.9935,7.277421 3.97506,15.692421 3.21708,13.661709 3.63993,15.777462 3.94917,19.759005 0.312,4.017078 0.42573,4.578978 1.14741,5.669499 0.77256,1.167417 0.80274,1.37172 0.84819,5.740995 0.0258,2.491776 0.14142,9.458001 0.25665,15.480501 0.20523,10.728145 0.19302,11.083725 -0.60192,17.550005 -0.44625,3.63 -0.81309,6.9375 -0.81522,7.35 -0.004,0.81606 3.01962,7.5 3.39303,7.5 0.12591,0 0.32463,-0.56624 0.44154,-1.25832 0.49527,-2.93145 2.66055,-7.44168 3.57261,-7.44168 0.20346,0 1.97814,3.46522 3.94374,7.70049 2.0889,4.50096 4.73784,9.62753 6.37536,12.33841 1.69962,2.81372 4.03515,7.35586 5.93796,11.54813 3.07782,6.7811 3.18681,7.0985 5.83365,16.98659 l 2.69721,10.07638 1.35054,13.65 c 1.46934,14.85104 1.5195,17.25561 0.5502,26.38702 -0.75993,7.15912 -3.20169,17.52314 -6.85422,29.09261 -0.7518,2.3813 -1.36689,4.44316 -1.36689,4.58192 0,0.5997 1.67439,-0.93196 3.47628,-3.17999 2.70594,-3.37587 4.65393,-6.74463 8.80224,-15.22198 4.02357,-8.2224 6.41643,-14.33303 7.26546,-18.5536 0.31599,-1.57079 1.03083,-4.40848 1.58856,-6.30598 1.33767,-4.551 3.02088,-18.44207 2.72289,-22.47128 -0.38283,-5.17666 -1.1421,-9.3466 -3.14607,-17.27872 -1.12551,-4.455 -2.27079,-9.45 -2.54505,-11.1 -0.27426,-1.65 -0.95214,-4.8225 -1.50639,-7.05 -0.55428,-2.2275 -1.15971,-5.0625 -1.34541,-6.3 -0.18573,-1.2375 -0.88182,-3.98395 -1.54686,-6.10323 -0.66507,-2.11927 -1.13136,-3.93106 -1.03623,-4.02618 0.32292,-0.32295 1.73313,1.26892 5.11983,5.77941 5.62053,7.48558 7.10307,9.96306 9.11628,15.2344 0.98616,2.58213 1.93323,4.93571 2.10462,5.23019 0.58044,0.9973 0.38301,-0.41421 -0.55101,-3.93974 -0.48447,-1.82867 -0.96855,-4.13485 -1.07571,-5.12485 -0.10719,-0.99 -0.74589,-3.58866 -1.41936,-5.7748 -1.76538,-5.73057 -1.6182,-5.69433 3.34932,0.8248 5.12577,6.72681 7.5132,10.5776 9.0933,14.66696 2.84034,7.35102 6.49287,17.63406 7.71441,21.71865 0.68025,2.27459 1.98204,5.84435 2.8929,7.9328 2.53479,5.81183 4.79202,14.19248 5.83965,21.68159 0.19617,1.4025 0.45978,2.66216 0.58578,2.79926 0.46098,0.50157 1.42182,-4.89897 1.80489,-10.14467 0.21882,-2.99637 0.18291,-4.8115 -0.15561,-7.86465 -0.54399,-4.90645 -0.25062,-7.81254 0.66747,-6.61164 0.86571,1.13244 5.31153,12.30612 6.22173,15.63709 3.0315,11.09439 4.29801,22.45032 3.93516,35.28461 -0.39894,14.11043 -0.33861,13.767 -5.66451,32.25 -2.56743,8.91 -5.29407,18.01815 -6.05922,20.24034 -3.26172,9.47302 -6.97026,17.56557 -10.61694,23.16765 -4.6779,7.18626 -12.8766,17.28036 -19.22784,23.67297 -3.48459,3.5073 -4.37085,4.23171 -6.30456,5.15307 -1.2375,0.58965 -2.76168,1.1655 -3.38709,1.27968 -0.94461,0.17247 -1.24359,0.41739 -1.76631,1.44696 -0.84942,1.67313 -4.83573,5.56368 -8.4966,8.29251 -1.65,1.22991 -5.43,4.27377 -8.4,6.7641 -5.16087,4.32738 -5.73258,4.71285 -12.9105,8.70531 -4.13079,2.29758 -8.48454,4.51002 -9.675,4.91652 -4.71963,1.61157 -1.52796,1.54872 7.1355,-0.14058 2.8875,-0.56301 6.465,-1.17381 7.95,-1.35729 3.29037,-0.40656 7.94037,-1.60113 13.49742,-3.46746 6.891,-2.31432 9.97026,-3.73443 15.02958,-6.93135 2.62515,-1.65882 6.53577,-4.10475 8.69025,-5.43543 8.95281,-5.52945 12.59139,-8.57874 20.90121,-17.51625 9.57591,-10.29915 12.79872,-14.27826 16.62132,-20.52186 3.24252,-5.29617 8.56296,-16.63109 10.19298,-21.71571 0.74994,-2.33932 1.07208,-8.42267 1.22352,-23.10587 0.13908,-13.48401 0.1134,-14.4386 -0.47604,-17.7 -0.34269,-1.89602 -0.76605,-5.47231 -0.9408,-7.94731 -0.33684,-4.77014 -0.83076,-7.17441 -3.57456,-17.4 -2.20125,-8.20359 -3.33642,-15.15 -2.47575,-15.15 0.44466,0 2.40564,2.24216 3.01731,3.45 0.33423,0.66 1.06809,2.2125 1.63077,3.45 0.56271,1.2375 2.57076,5.02394 4.46235,8.41433 2.025,3.62955 3.90984,7.45371 4.58367,9.3 1.54389,4.23 2.92587,7.16337 3.07911,6.5356 0.0671,-0.27504 -0.68871,-3.52713 -1.67964,-7.22686 -1.98255,-7.40196 -2.89863,-11.59949 -3.21438,-14.72865 -0.19185,-1.9011 -0.16548,-2.0475 0.35103,-1.94803 0.85668,0.16498 2.66613,2.77574 3.831,5.52753 0.5769,1.36286 2.69139,5.42501 4.69884,9.027 2.47362,4.43845 4.12776,7.82803 5.13264,10.51755 0.81549,2.18266 2.86797,6.77266 4.56108,10.2 1.69311,3.42734 3.37677,7.14394 3.74151,8.25912 2.067,6.3199 4.56027,26.63284 4.56387,37.18205 0.003,6.1722 -0.57843,10.7811 -1.96458,15.597 -0.58422,2.02965 -1.12758,4.50096 -1.2075,5.49183 -0.0799,0.99084 -0.27603,3.13209 -0.43575,4.75833 -0.15975,1.62621 -0.29262,4.73121 -0.29523,6.9 -0.003,2.22183 -0.32793,6.75012 -0.74505,10.37316 -0.40716,3.53646 -0.67275,6.49746 -0.59022,6.57999 0.30585,0.30585 0.86592,-0.59829 1.36017,-2.19564 0.30339,-0.98058 1.35375,-2.82915 2.60199,-4.57932 1.15128,-1.61424 3.74433,-5.66874 5.76237,-9.00999 2.01801,-3.34125 3.81096,-6.075 3.9843,-6.075 0.20829,0 0.24309,0.58482 0.10263,1.725 -0.11688,0.94875 -0.32175,4.7625 -0.45528,8.475 -0.38532,10.71492 -2.55432,27.90843 -4.55727,36.12564 -2.38956,9.80322 -5.17176,16.41828 -11.36106,27.01248 -3.54849,6.07392 -4.46694,7.16469 -11.24442,13.35405 -12.23358,11.17197 -21.23892,17.67216 -28.77408,20.76954 -1.98726,0.81687 -5.13,2.29293 -6.98388,3.28011 -2.70366,1.4397 -3.94974,1.91139 -6.29691,2.38356 -1.60941,0.32376 -5.49624,1.47258 -8.63736,2.55297 -3.14115,1.08039 -7.66866,2.43417 -10.06116,3.00837 -2.3925,0.5742 -6.78,1.78857 -9.75,2.69859 -2.97,0.91005 -7.2225,1.97694 -9.45,2.3709 -2.2275,0.39396 -7.695,1.46475 -12.15,2.37954 l -8.1,1.66323 -7.65,-0.0132 c -10.82964,-0.0186 -30.47163,-0.7869 -34.05,-1.332 -4.21671,-0.64236 -14.85,-0.97107 -14.85,-0.45906 0,0.99123 8.70699,10.43235 10.69635,11.59818 1.88073,1.1022 10.47819,4.63359 15.52548,6.37707 14.28477,4.9344 24.4749,6.89997 43.05588,8.30502 5.7057,0.43146 7.50585,0.45582 11.85,0.16029 11.45349,-0.77916 19.70562,-2.75019 32.42229,-7.74417 7.70526,-3.02592 11.26665,-5.42103 17.70378,-11.90613 9.11697,-9.18489 23.00931,-26.40642 27.75615,-34.40766 1.47864,-2.4924 6.89352,-13.97421 9.32715,-19.77744 0.65733,-1.5675 1.53441,-3.42945 1.9491,-4.13766 0.76116,-1.29999 2.84751,-3.06234 3.62535,-3.06234 0.52335,0 1.64619,2.50353 2.30031,5.12886 0.76908,3.08691 1.06884,6.05865 1.07889,10.69614 0.005,2.35125 0.12693,4.275 0.27075,4.275 0.14382,0 0.90033,-1.45125 1.68114,-3.225 3.12228,-7.09293 3.22539,-7.28055 4.75821,-8.65869 0.8211,-0.73824 1.69461,-1.30266 1.94112,-1.25427 0.24651,0.0484 0.77967,0.96546 1.18482,2.03796 1.85736,4.91673 2.39466,11.20611 1.90935,22.35 -0.29955,6.87846 -1.44057,15.41466 -3.34833,25.05 -1.09002,5.50527 -2.73201,8.09163 -13.55142,21.34518 -3.69066,4.52097 -3.87621,4.81593 -5.0007,7.95 -0.6423,1.79016 -1.64502,4.43607 -2.22825,5.87982 -0.6552,1.62192 -0.92487,2.625 -0.70572,2.625 0.7869,0 4.49127,-2.84919 8.70159,-6.69276 5.78592,-5.28189 9.49872,-7.79682 9.49596,-6.43224 0,0.63264 -1.40199,5.59458 -2.56182,9.075 -2.07489,6.22644 -4.02606,10.80492 -6.32847,14.85 -1.26786,2.2275 -2.74329,5.11197 -3.27876,6.40992 -0.85503,2.07252 -1.13229,2.44938 -2.27688,3.09453 -1.91928,1.08183 -3.5172,2.74482 -7.2984,7.59555 -3.88929,4.98936 -5.43984,6.57687 -9.08358,9.3 -1.43508,1.0725 -3.1008,2.60427 -3.70161,3.40395 -0.86649,1.15332 -2.69763,2.50998 -8.85603,6.56121 -8.40714,5.53056 -10.491,6.57489 -22.97571,11.51445 -4.67322,1.84896 -5.90277,2.22138 -7.35,2.2263 -1.15461,0.004 -2.59395,0.30888 -4.28799,0.90846 -3.86982,1.36965 -7.04223,1.74648 -17.55,2.08473 -5.28,0.16998 -12.435,0.52371 -15.9,0.78609 -4.54374,0.34407 -13.24143,0.54135 -31.2,0.70767 -27.5046,0.25476 -25.22826,0.10968 -40.11003,2.5566 -4.50447,0.74064 -10.95747,1.62207 -14.33997,1.95876 -3.3825,0.33669 -7.5,0.86622 -9.15,1.17675 -1.65,0.31053 -5.43,0.85167 -8.4,1.20255 -6.12603,0.72372 -22.48647,4.38789 -42.75,9.57456 -11.23887,2.87673 -11.62677,3.0006 -14.4,4.599 -1.5675,0.90348 -4.1325,2.36223 -5.7,3.24171 -3.77184,2.11626 -9.52044,5.87001 -15.6,10.18659 -2.7225,1.93299 -6.9075,4.77366 -9.3,6.31257 -2.3925,1.53891 -6.51,4.36047 -9.15,6.27015 -2.81643,2.0373 -7.25937,4.84641 -10.7514,6.79773 -8.56614,4.78668 -19.61664,12.7965 -27.9486,20.25825 -9.07062,8.12322 -15.74895,15.66402 -26.54388,29.97192 l -5.77173,7.65 -4.27539,8.55 c -4.35435,8.70792 -11.71317,25.19196 -12.75849,28.57947 -1.68699,5.46702 -2.29593,9.16182 -3.89196,23.61414 l -1.20855,10.94361 0,12.91536 c 0,9.5697 0.11478,13.84557 0.44307,16.50639 0.24369,1.97505 0.7149,6.29103 1.04712,9.59103 1.53057,15.20376 2.5068,21.19611 5.54718,34.05 4.15647,17.57247 4.32075,18.06843 9.04131,27.29718 1.72938,3.38097 3.6267,7.49847 4.21629,9.15 1.23837,3.46887 1.86708,4.57002 7.02429,12.30282 5.54076,8.30784 8.86563,14.48511 8.17059,15.18015 -0.13656,0.13656 -0.79494,-0.0622 -1.4631,-0.44175 z M 153.30715,390.5521 c 2.31,-0.27096 7.71,-0.58236 12,-0.69198 8.78013,-0.22437 8.80308,-0.22974 12.43119,-2.90061 5.12763,-3.77472 9.77109,-9.15774 12.3672,-14.33682 1.00719,-2.00934 2.33436,-4.39584 2.94921,-5.30334 3.29502,-4.86321 3.22107,-5.72337 -0.86406,-10.0479 -1.25595,-1.32957 -3.62169,-3.89118 -5.25723,-5.69247 -1.63551,-1.80129 -3.96864,-4.16037 -5.18469,-5.24235 -1.82163,-1.62081 -2.18148,-2.08779 -2.04327,-2.65161 0.13293,-0.54222 -0.027,-0.7914 -0.7701,-1.2 -2.62425,-1.44291 -4.12692,-2.67891 -8.57148,-7.05036 l -4.8432,-4.76358 -0.92364,0.47763 c -0.50799,0.26268 -1.97118,0.67806 -3.25152,0.92301 -3.04965,0.5835 -24.66444,8.20689 -28.13841,9.92424 -2.96534,1.46589 -3.9665,2.23161 -5.09826,3.89937 -0.93545,1.37847 -0.95382,2.44548 -0.13454,7.81596 1.78467,11.69871 7.65849,23.43453 17.26533,34.49601 2.59225,2.98473 2.78424,3.15147 3.41747,2.9679 0.2475,-0.0718 2.34,-0.35214 4.65,-0.6231 z m 198.79896,-16.76235 c 5.03703,-0.90003 12.05334,-3.70497 18.42969,-7.36764 4.80753,-2.76156 7.77378,-4.92837 10.47135,-7.64922 4.63095,-4.67091 7.1184,-9.13569 10.91538,-19.5921 4.13994,-11.4009 4.38897,-12.89946 4.37238,-26.31144 -0.0129,-10.35907 -0.35628,-14.82056 -1.66791,-21.66402 -1.28133,-6.68527 -6.46545,-20.59259 -9.7917,-26.268 -0.57576,-0.98239 -3.02886,-4.03207 -5.45133,-6.77707 -2.42247,-2.745 -6.57096,-7.62341 -9.21888,-10.84091 -5.36184,-6.51519 -7.15308,-8.29254 -11.95794,-11.86529 -5.44524,-4.04893 -8.95584,-6.19175 -16.05,-9.79672 -6.79014,-3.45048 -10.95777,-5.05942 -19.203,-7.41347 -4.84431,-1.38307 -19.27902,-4.85273 -19.78401,-4.75547 -0.24681,0.0475 1.60419,1.19585 4.11336,2.55181 2.50914,1.35597 5.94843,3.32453 7.64286,4.37459 1.69443,1.05006 4.70079,2.82256 6.68079,3.93888 5.13642,2.89592 9.6336,5.90864 13.95,9.34531 2.0625,1.64214 5.775,4.52045 8.25,6.39624 16.28661,12.34352 23.95026,21.32854 30.47043,35.72412 3.12537,6.90034 3.8355,9.14429 4.34148,13.71842 0.25134,2.27237 0.91893,6.89908 1.48347,10.28158 1.92315,11.52231 2.07972,13.10277 2.08017,21 3e-4,5.65221 -0.12051,8.04 -0.52308,10.33713 -1.13619,6.48312 -3.02076,12.42231 -5.14452,16.21287 -2.23116,3.98223 -9.40371,11.51346 -16.05795,16.86093 -3.26358,2.62269 -4.50345,3.294 -14.325,7.75587 -2.51625,1.14312 -4.575,2.20095 -4.575,2.35074 0,0.39291 7.45077,0.007 10.54896,-0.54714 z M 207.3406,368.09578 c -0.24549,-0.97803 -3.07542,-4.37643 -3.6444,-4.37643 -0.68961,0 -0.52404,0.39993 0.62772,1.51614 0.58674,0.56862 1.48161,1.68024 1.98861,2.47026 0.96816,1.50861 1.34466,1.65147 1.02807,0.39003 z m 105.79233,-23.21865 c 7.14357,-4.72272 9.74547,-8.49273 13.23924,-19.18281 2.90043,-8.8746 4.05453,-15.02769 4.2906,-22.87497 0.30459,-10.12607 -1.30389,-17.36836 -5.81766,-26.19458 -3.44901,-6.74414 -8.20542,-13.07092 -15.23445,-20.26419 -5.22792,-5.35011 -8.53866,-8.24219 -13.37571,-11.68435 -1.90974,-1.359 -4.326,-3.19354 -5.36949,-4.07676 -1.45062,-1.22782 -2.96379,-2.07171 -6.42777,-3.58475 -5.99724,-2.61953 -6.82419,-2.92632 -12.64143,-4.68979 -9.28467,-2.8146 -19.00188,-5.01553 -25.10229,-5.6856 -1.60224,-0.17599 -4.75752,-0.31998 -7.01172,-0.31998 -3.60915,0 -4.05396,0.0537 -3.7251,0.45 0.20541,0.2475 0.49932,0.45 0.6531,0.45 0.63747,0 10.76079,5.27131 14.86821,7.74204 2.43579,1.46517 6.79119,3.99106 9.67869,5.61308 2.8875,1.62202 6.735,3.85179 8.55,4.95504 1.815,1.10326 5.2575,3.12575 7.65,4.49442 6.19149,3.54197 8.89563,5.43547 13.5,9.45304 2.2275,1.94361 5.60439,4.84342 7.5042,6.44402 6.21138,5.23314 8.74632,8.41211 14.78757,18.54458 2.85042,4.78079 4.56,8.46469 5.80254,12.50378 l 0.83061,2.7 0.11457,11.55 c 0.0814,8.2047 0.009,12.15825 -0.25098,13.65 -0.92883,5.3358 -4.4757,13.22889 -8.55609,19.0404 -1.39284,1.98375 -2.53242,3.68292 -2.53242,3.77592 0,0.21552 0.0231,0.20139 4.57578,-2.80854 z m -106.39182,-4.85028 c 0.42663,-2.36661 0.45879,-3.24468 0.18723,-5.11131 -0.45846,-3.15141 -1.95585,-7.62861 -3.23253,-9.66534 -0.9558,-1.52484 -1.25076,-1.7706 -2.60952,-2.1741 -2.64066,-0.7842 -7.45602,-1.61196 -10.65414,-1.83147 -3.61713,-0.24825 -3.67737,-0.17781 -1.98033,2.31606 1.41336,2.07702 8.15829,10.17333 10.71237,12.85866 0.39234,0.4125 1.8993,2.1 3.34884,3.75 1.44951,1.65 2.78013,3.09411 2.95689,3.20916 0.49413,0.32157 0.7131,-0.25581 1.27119,-3.35166 z m -46.2705,-26.88174 c 1.65078,-0.56136 3.12399,-1.14321 3.27378,-1.293 0.70254,-0.70254 -0.48126,-1.72068 -7.03947,-6.05433 -5.80963,-3.83899 -7.81145,-4.97865 -12.38074,-7.04845 -12.98169,-5.8805 -24.85435,-10.14572 -31.68775,-11.38374 -2.35395,-0.42647 -6.34657,-1.30728 -8.87249,-1.95736 -4.363508,-1.12301 -8.269247,-1.80409 -7.874357,-1.37312 0.100341,0.10951 2.057841,1.05557 4.349997,2.10235 17.9135,8.18073 36.04415,17.49775 46.91757,24.11013 1.8975,1.15389 4.39252,2.59773 5.54448,3.20853 2.48148,1.31571 3.05265,1.29285 7.76898,-0.31101 z m 63.78654,-7.18029 c 0,-0.085 -1.31052,-1.98805 -2.91225,-4.22898 -2.03394,-2.84561 -3.32325,-4.34752 -4.275,-4.97994 -0.74952,-0.49804 -2.03775,-1.71238 -2.86275,-2.69855 -1.64184,-1.96257 -7.34547,-6.86835 -11.22999,-9.65908 -5.59806,-4.02175 -11.97024,-7.41822 -20.87157,-11.12485 -5.60637,-2.33457 -22.7535,-8.36618 -25.19844,-8.86373 -2.09175,-0.42567 -25.24906,-0.91136 -25.95,-0.54426 -0.2475,0.12962 -0.37159,0.23978 -0.27576,0.24479 0.0958,0.005 2.66084,0.55656 5.7,1.22563 3.03917,0.66908 7.75326,1.67876 10.47576,2.24375 8.91,1.84903 22.91967,6.69572 34.66716,11.9932 5.16636,2.32975 6.9576,3.28217 12.13284,6.4512 2.0625,1.26295 5.1675,3.07429 6.9,4.02519 4.46019,2.44801 9.67071,5.9439 16.94985,11.37218 5.82507,4.34389 6.75015,4.96657 6.75015,4.54345 z m 12.99426,-37.87047 c -0.85542,-2.40273 -11.59782,-13.40035 -16.44651,-16.83726 -4.97256,-3.52472 -10.19379,-5.45978 -19.84878,-7.35626 -3.76695,-0.73991 -9.27897,-1.88946 -12.24897,-2.55455 -6.52698,-1.46162 -8.36406,-1.72674 -13.8,-1.99156 -2.86248,-0.13945 -4.10445,-0.10684 -3.9,0.10241 0.165,0.16887 5.6325,1.9562 12.15,3.97185 9.81894,3.03668 12.64698,4.0394 16.5,5.85029 2.5575,1.202 7.8225,3.55951 11.7,5.23891 5.24427,2.27137 8.07159,3.70078 11.03859,5.5808 2.19375,1.39004 5.02875,3.05562 6.3,3.70129 1.27128,0.64566 3.59391,1.98995 5.16141,2.9873 3.0021,1.91015 3.70548,2.18094 3.39426,1.30678 z M 52.379281,254.36928 c 1.392561,-0.41321 2.74548,-1.01199 3.012399,-1.33326 0.617604,-0.74335 2.497926,-5.38422 2.27274,-5.6094 -0.214728,-0.21473 -5.969703,0.78762 -6.311436,1.09927 -0.282039,0.25721 -2.595834,5.8924 -2.595834,6.32209 0,0.44125 0.940734,0.31692 3.622131,-0.4787 z M 393.06043,169.00317 c 2.98437,-0.4021 6.33633,-1.3213 8.68098,-2.38056 2.44212,-1.10331 2.79918,-1.66479 0.89244,-1.40344 -3.39417,0.46522 -10.13199,0.85279 -12.4767,0.71767 -2.15457,-0.12416 -3.08064,-0.3649 -5.97183,-1.55242 -4.65507,-1.91201 -7.84974,-3.54503 -10.52817,-5.38171 -1.2375,-0.84859 -4.2075,-2.51385 -6.6,-3.70057 -8.49435,-4.21334 -13.59774,-9.14146 -17.86617,-17.25258 -0.89154,-1.69412 -1.62231,-2.94521 -1.62396,-2.78021 -0.005,0.48477 1.73259,6.11931 2.59026,8.4 2.20878,5.87366 4.72359,9.39347 13.43442,18.80308 2.46204,2.65957 3.24234,3.04463 9.31545,4.59705 7.69503,1.96701 14.82702,2.65132 20.15328,1.93369 z m -10.8507,-29.94332 c 2.57673,-1.17058 4.33428,-4.54598 3.90234,-7.49449 -0.327,-2.23218 -1.1121,-3.64699 -3.61287,-6.51062 -1.28979,-1.47697 -2.60526,-3.12414 -2.9232,-3.66039 -0.31797,-0.53625 -0.69009,-0.975 -0.82692,-0.975 -0.35508,0 -1.37259,2.84695 -1.80738,5.05687 -0.76497,3.88832 0.19365,10.31957 1.92912,12.94204 0.9057,1.36862 1.49097,1.48108 3.33891,0.64159 z m 36.29028,-15.68499 c -0.95907,-3.73448 -3.84144,-8.308 -7.84242,-12.44378 l -1.75044,-1.80941 -3.15,-0.65083 c -4.69482,-0.97002 -8.54358,-1.32258 -10.5,-0.96185 -2.19849,0.40536 -6.62217,2.61614 -9.42753,4.71151 -3.36354,2.51228 -3.13008,2.71014 1.48947,1.26239 2.62572,-0.8229 3.26088,-0.91489 5.23806,-0.75865 4.88943,0.38638 9.9102,2.50949 13.31721,5.63141 1.42881,1.30922 2.37417,1.91102 3.54099,2.25413 2.33151,0.68558 5.91612,2.62892 7.77096,4.21287 1.88631,1.61086 2.05227,1.42799 1.3137,-1.44779 z"
           style="fill:#016dbc" />
        <path
           inkscape:connector-curvature="0"
           id="path4151"
           d="m 242.3839,884.40775 c -1.97079,-1.11945 -4.59651,-2.9736 -7.43931,-5.25327 -2.76462,-2.217 -3.18744,-2.44053 -3.18744,-1.68513 0,0.2475 -0.11418,0.45 -0.25374,0.45 -0.55707,0 -6.68151,-4.31787 -9.64626,-6.80082 -5.43165,-4.54896 -12.20082,-11.38164 -13.04619,-13.16859 -0.50238,-1.06194 -1.20774,-1.91562 -2.17377,-2.63082 -3.27696,-2.4261 -7.14606,-7.08 -15.61053,-18.77694 -7.87485,-10.88217 -10.10775,-13.73322 -10.20909,-13.03542 -0.0505,0.34746 2.10069,4.86288 4.92594,10.33971 2.75853,5.34759 5.55435,10.87038 6.21294,12.27288 0.65859,1.4025 2.67687,5.04291 4.48506,8.08983 5.07081,8.54457 7.64472,14.00109 6.93792,14.70789 -0.39831,0.39831 -4.1265,-0.29019 -7.46913,-1.37937 -3.40968,-1.11102 -9.1215,-3.94947 -12.41838,-6.17118 -1.54836,-1.04346 -3.43836,-2.23083 -4.2,-2.63865 -11.78175,-6.30867 -19.50855,-12.53379 -30.54485,-24.60852 -4.03894,-4.41897 -6.23618,-7.56618 -11.12707,-15.93783 -4.28008,-7.32609 -4.77894,-8.28648 -6.34085,-12.20694 -0.65598,-1.64655 -2.86649,-6.28131 -4.91225,-10.29948 -4.68538,-9.20277 -6.15732,-13.00293 -9.16269,-23.65575 -1.934,-6.85524 -2.47651,-9.23385 -2.73692,-12 -0.57921,-6.15255 -0.62624,-6.41349 -1.07369,-5.95677 -0.81034,0.82713 -3.58907,13.47159 -4.46315,20.30928 -0.66185,5.17749 -0.61313,11.65806 0.12352,16.43076 0.32825,2.1267 0.59825,5.04774 0.6,6.49116 0.002,1.8894 0.37539,4.49412 1.33214,9.3 1.23407,6.19893 1.55827,8.86245 1.42419,11.70057 -0.0708,1.49856 -0.55375,1.43088 -1.93057,-0.27051 -0.62009,-0.76629 -2.84759,-3.27855 -4.95,-5.58282 -2.10242,-2.3043 -3.93054,-4.37682 -4.06249,-4.60563 -0.13195,-0.22884 -0.4357,-0.41604 -0.675,-0.41604 -0.3367,0 -0.43613,0.45795 -0.43968,2.025 -0.007,2.87283 -0.32771,3.22908 -1.561935,1.73238 -0.540912,-0.65592 -1.793475,-2.09067 -2.783475,-3.18834 -0.99,-1.09764 -3.205782,-3.55749 -4.92396,-5.46633 -7.234242,-8.03697 -9.498492,-12.432 -12.159759,-23.60271 -0.609291,-2.5575 -1.968285,-7.755 -3.019986,-11.55 -2.544006,-9.17988 -2.746872,-10.00881 -3.436062,-14.04015 -0.536292,-3.13695 -0.595152,-5.01435 -0.628923,-20.06034 -0.04156,-18.51324 0.02028,-19.446 2.114337,-31.89951 0.638133,-3.795 1.316244,-8.655 1.506918,-10.8 0.294807,-3.31647 0.676875,-5.06706 2.553516,-11.7 1.434663,-5.07075 2.688894,-8.83776 3.58452,-10.76586 0.757722,-1.63122 1.313541,-3.03 1.235154,-3.10839 -0.368166,-0.36816 -1.814553,1.83444 -3.754152,5.71689 -3.150249,6.30585 -5.433636,13.90791 -5.874309,19.55736 -0.208836,2.67726 -0.892542,4.95 -1.489107,4.95 -0.47766,0 -2.604069,-5.24406 -3.466923,-8.55 -1.184496,-4.53825 -3.980601,-13.80045 -4.28304,-14.18772 -0.166536,-0.21324 -0.401334,-0.28074 -0.521769,-0.15 -0.505023,0.54825 -2.130153,7.81734 -2.383281,10.66026 -0.296364,3.3285 -0.771882,5.11983 -1.312275,4.94346 -0.501765,-0.16374 -2.141988,-4.14747 -3.053406,-7.416 -0.437091,-1.5675 -1.609683,-5.6175 -2.605761,-9 -0.996078,-3.3825 -2.295663,-7.9725 -2.887971,-10.2 l -1.076919,-4.05 0.0044,-7.05 c 0.0037,-5.80794 0.123405,-7.81638 0.679743,-11.4 1.134783,-7.30965 2.265768,-11.69175 3.976062,-15.4056 0.847089,-1.83942 2.126874,-5.05107 2.843964,-7.137 1.475664,-4.29252 4.356273,-9.53046 9.182601,-16.69716 1.455348,-2.16105 13.291929,-15.18369 15.91152,-17.50587 4.854207,-4.30311 8.835783,-6.85515 18.045888,-11.56668 8.94887,-4.57791 9.32897,-5.29698 5.12082,-9.68769 -0.86976,-0.9075 -3.82145,-4.21005 -6.559302,-7.33899 -3.873882,-4.42722 -5.270583,-6.25695 -6.297531,-8.25 -3.249774,-6.3069 -5.267823,-14.8542 -5.76963,-24.43683 -0.172329,-3.29085 -0.138351,-3.85101 0.225132,-3.71154 0.700866,0.26895 6.699231,4.53924 6.95937,4.95444 0.131949,0.2106 0.441078,0.38292 0.686952,0.38292 0.245874,0 0.976287,0.27 1.623141,0.6 0.646854,0.33 1.524441,0.6 1.950195,0.6 0.425757,0 1.139883,0.2697 1.586953,0.59937 0.44707,0.32964 2.14925,0.93786 3.78262,1.35159 5.48091,1.38831 8.84517,1.64907 21.2706,1.64868 11.0766,0 11.77858,-0.0354 21.00198,-1.05 5.24829,-0.57729 10.58078,-1.05003 11.84999,-1.05048 5.20113,-0.003 10.62801,-1.1373 14.87778,-3.11271 2.81151,-1.30686 8.62851,-5.23806 12.17988,-8.23134 1.5675,-1.32117 5.67129,-5.32647 9.11955,-8.90067 6.90714,-7.15944 9.75456,-9.72141 16.67508,-15.00348 2.55456,-1.94973 5.43642,-4.20393 6.40419,-5.00931 1.79133,-1.49076 4.79397,-3.14091 8.30118,-4.56204 1.0725,-0.43458 5.055,-2.34267 8.85,-4.2402 l 6.9,-3.45006 11.25,-3.13056 c 6.1875,-1.72182 13.09839,-3.46893 15.35754,-3.88245 4.5909,-0.84033 16.96128,-4.5795 19.25172,-5.81919 2.5314,-1.37007 4.08273,-3.71886 6.6006,-9.99369 3.72288,-9.27777 6.2679,-18.59775 6.67818,-24.45588 0.32166,-4.59246 -0.92859,-13.90833 -2.20869,-16.45758 -0.52275,-1.041 -2.18778,-2.89521 -5.44128,-6.05952 -5.43285,-5.28384 -5.23251,-5.19126 -11.22783,-5.18928 -7.99827,0.003 -17.97018,2.66712 -27.97206,7.47411 -4.73316,2.27481 -8.48058,4.68411 -12.35829,7.94544 -5.4516,4.58508 -21.47772,21.72906 -24.32226,26.01879 -2.23077,3.36417 -6.18126,10.30782 -7.75695,13.63416 -1.69332,3.57462 -2.16327,5.8041 -2.3982,11.37765 -0.23937,5.67933 0.0201,7.24131 2.32794,14.02149 0.99654,2.92755 1.76862,5.62755 1.71573,6 -0.0821,0.5784 -0.2493,0.66297 -1.14615,0.57981 -2.92242,-0.27096 -8.13897,-2.53299 -15.981,-6.92985 -2.34795,-1.31643 -5.05122,-2.69115 -6.00729,-3.05487 -2.36919,-0.90141 -2.54634,-0.67845 -1.93332,2.43318 0.38103,1.93398 1.10436,3.67485 3.58803,8.63559 4.38108,8.7504 4.93824,10.78338 3.30858,12.07221 -1.18854,0.93999 -2.57526,0.6795 -8.72016,-1.63803 -6.35328,-2.39613 -8.72322,-3.61821 -11.43921,-5.89863 -1.18881,-0.99816 -2.90037,-2.08626 -3.957,-2.51562 -1.02414,-0.41616 -1.90629,-0.75663 -1.96035,-0.75663 -0.414,0 0.30117,1.87029 2.90172,7.58859 1.65,3.62814 3,6.77739 3,6.99831 0,1.61298 -6.48645,0.30528 -13.5,-2.72163 -5.09163,-2.19744 -12.6,-6.43449 -12.6,-7.11027 0,-0.35544 -5.10269,-2.68875 -5.43324,-2.48445 -0.37974,0.23469 0.41815,1.67316 2.7343,4.92945 2.62899,3.69612 3.68706,5.62776 4.63017,8.45289 0.96495,2.89056 0.96871,3.24711 0.0343,3.24711 -1.15391,0 -5.45428,-1.44753 -8.41549,-2.83269 -2.71093,-1.26807 -8.77869,-4.86414 -9.9,-5.86719 -0.33,-0.29523 -1.8825,-1.17078 -3.45,-1.94568 -3.9037,-1.92984 -15.66514,-9.80826 -17.7,-11.85639 -6.69146,-6.73509 -13.167085,-17.54877 -16.775425,-28.01334 -1.390806,-4.0335 -3.656847,-12.39525 -4.351494,-16.05714 -0.260205,-1.3716 -0.473091,-3.46617 -0.473091,-4.65459 0,-2.02464 -0.05838,-2.21622 -0.926934,-3.04185 -0.509817,-0.48462 -1.163523,-1.33845 -1.452684,-1.89738 -0.470298,-0.90909 -0.791763,-1.09266 -3.048063,-1.74048 -3.610185,-1.03659 -6.427113,-2.40981 -7.595016,-3.70254 -2.445492,-2.70687 -3.620685,-9.70284 -2.118021,-12.60867 0.234396,-0.45327 0.870201,-1.09857 1.412904,-1.43397 1.158306,-0.71586 5.402418,-1.98651 7.652814,-2.29116 1.107051,-0.14988 1.575,-0.34725 1.575,-0.66426 0,-0.24807 -1.704864,-2.9397 -3.788589,-5.98143 -3.18786,-4.65348 -4.045425,-5.70087 -5.408373,-6.60555 -1.938708,-1.28685 -3.096831,-2.6586 -5.281452,-6.25569 -3.549873,-5.84505 -4.964025,-9.22926 -7.449942,-17.82834 -0.974403,-3.37059 -1.771644,-6.23934 -1.771644,-6.375 0,-0.13566 0.216648,-0.24666 0.48144,-0.24666 0.595071,0 9.482853,5.31342 9.793725,5.85504 0.123843,0.21576 0.785466,0.48693 1.470276,0.60264 0.824469,0.13929 3.636885,1.6488 8.324835,4.46817 16.047525,9.65115 20.550942,12.24429 25.979724,14.95956 3.135,1.56801 5.99617,3.19506 6.35816,3.61566 0.91219,1.05993 2.07448,1.30329 8.87899,1.85907 l 5.93715,0.48492 4.56285,-0.95799 c 2.50957,-0.52689 4.61584,-1.00629 4.6806,-1.06527 0.36508,-0.33264 -1.38922,-1.38753 -8.60975,-5.17716 -12.34369,-6.47847 -14.93747,-7.91094 -16.77753,-9.26562 -0.93691,-0.68976 -3.7791,-2.37348 -6.31596,-3.74157 -2.53686,-1.36809 -5.512939,-3.20325 -6.613495,-4.07811 -3.542904,-2.81637 -10.356795,-9.68967 -11.583342,-11.68434 -0.634125,-1.03125 -1.338822,-1.875 -1.565991,-1.875 -0.227172,0 -2.536734,0.50388 -5.132361,1.11975 -4.662339,1.10622 -4.795389,1.11981 -11.019321,1.12458 -8.316738,0.006 -11.076039,-0.58149 -14.891736,-3.17268 -0.948939,-0.6444 -1.853394,-1.17165 -2.009901,-1.17165 -0.839451,0 -4.97622,12.3837 -6.163209,18.45 -0.855879,4.37409 -2.285154,15.57951 -2.285154,17.91546 0,2.18724 -0.364953,3.25425 -0.723012,2.11389 -0.09142,-0.29115 -0.865686,-3.83685 -1.720599,-7.87935 -1.423038,-6.72891 -1.553664,-7.67955 -1.545849,-11.25 0.01557,-7.1085 1.491816,-17.39676 3.071208,-21.40371 0.957237,-2.4285 0.855579,-2.87052 -0.937986,-4.07838 -1.149231,-0.77394 -1.656564,-0.96477 -1.939857,-0.72966 -0.839793,0.69696 -4.053558,9.74298 -5.475309,15.41175 -0.777087,3.0984 -3.022452,18.52077 -3.0489,20.9415 -0.03023,2.76678 -0.36777,1.68093 -2.078247,-6.68565 -1.746642,-8.54349 -1.803513,-9.71943 -0.888072,-18.36381 0.736965,-6.95907 1.192896,-9.30516 2.609334,-13.42683 0.592509,-1.72416 1.077288,-3.69891 1.077288,-4.38834 0,-1.51644 -1.01043,-3.35553 -3.026055,-5.50776 l -1.423944,-1.52043 -0.977898,0.48954 c -1.417485,0.70959 -5.74464,5.3769 -7.67562,8.27898 -3.303675,4.96512 -4.4856,8.33691 -5.599884,15.9753 -0.581385,3.98538 -0.983982,5.29812 -1.328763,4.33266 -0.476157,-1.33332 -0.79272,-3.52155 -0.95121,-6.57516 -0.375099,-7.22694 1.778592,-14.43276 6.472086,-21.65433 1.175448,-1.80861 1.950033,-2.61537 3.600375,-3.75 1.156497,-0.79512 2.175321,-1.63395 2.264052,-1.86405 0.209589,-0.54354 -0.574548,-1.41186 -2.236872,-2.47701 -1.6902,-1.08303 -3.212235,-1.10664 -5.409339,-0.0839 -3.627651,1.68858 -10.25184,9.83421 -12.268332,15.08616 -0.967818,2.52066 -1.883889,6.52656 -2.445312,10.69317 -0.462276,3.43077 -0.719364,3.94776 -1.185279,2.38359 -0.63237,-2.12295 -0.741222,-9.25455 -0.186159,-12.19653 0.902688,-4.78449 3.060132,-10.08465 5.695569,-13.99221 0.595422,-0.88284 1.082586,-1.70133 1.082586,-1.81887 0,-0.42516 1.730145,-1.78875 5.914407,-4.66134 2.345427,-1.61019 4.418052,-3.11277 4.605837,-3.33903 0.265449,-0.31986 0.143169,-0.66333 -0.549486,-1.5435 -0.490002,-0.62265 -1.181622,-1.70586 -1.536933,-2.40711 -0.355311,-0.70125 -0.829422,-1.275 -1.053585,-1.275 -0.998757,0 -6.43167,6.55662 -8.841438,10.67016 -0.683112,1.1661 -1.544019,2.44431 -1.91313,2.84052 -0.616272,0.66147 -0.679911,0.67464 -0.778815,0.16107 -0.154764,-0.80361 0.462414,-3.83802 1.34682,-6.62175 1.08837,-3.4257 3.998544,-9.15819 6.219942,-12.25206 l 1.904175,-2.65206 -0.483969,-2.29384 c -0.348267,-1.65069 -0.624042,-2.32083 -0.983544,-2.39006 -0.762123,-0.14677 -3.800415,1.50221 -6.459009,3.50553 -4.054386,3.05505 -8.004555,7.64685 -11.32596,13.16559 -0.816579,1.35678 -1.611417,2.4669 -1.766304,2.4669 -0.990594,0 1.227192,-7.66887 3.569589,-12.34329 2.999298,-5.98528 5.611293,-9.27565 10.231335,-12.88854 4.176432,-3.26599 6.189159,-5.14089 7.521531,-7.00647 1.651272,-2.3121 1.549488,-2.2757 4.516428,-1.61515 3.496137,0.77837 7.993371,1.09723 7.812261,0.55391 -0.07216,-0.2165 -1.474221,-1.0868 -3.11568,-1.93401 -3.164988,-1.63355 -6.499899,-3.65217 -8.234472,-4.98433 -0.5775,-0.44353 -2.3325,-1.44748 -3.9,-2.23102 -4.214994,-2.10692 -9.241986,-5.53421 -11.166867,-7.61331 -9.314523,-10.0608 -13.132386,-22.74551 -10.256655,-34.07736 0.949131,-3.74007 4.79238,-10.47604 8.611395,-15.093 4.819392,-5.82635 11.931054,-10.31813 20.912127,-13.20826 4.522665,-1.4554 8.310399,-2.31495 18.007221,-4.08639 11.888805,-2.17187 12.667647,-2.22346 27.607512,-1.82862 10.393458,0.27469 12.571356,0.0634 18.809871,-1.82465 8.075661,-2.44409 14.628576,-5.36577 21.000376,-9.36324 7.68386,-4.82061 11.69124,-6.5853 13.96938,-6.15159 1.28458,0.24455 3.01743,1.13741 4.84523,2.49652 1.96835,1.46361 6.82457,4.11217 8.2373,4.49257 0.60942,0.16411 2.07653,1.0321 3.26024,1.92888 3.23334,2.44959 6.07523,3.77735 8.08487,3.77735 2.50809,0 8.178,-1.53776 8.178,-2.21799 0,-0.20336 -0.41744,-0.76627 -0.92764,-1.25089 -0.5102,-0.48462 -1.61323,-1.73921 -2.45118,-2.78798 l -1.52355,-1.90686 -1.47845,0.19612 c -3.12905,0.41509 -5.45331,-1.07331 -9.38165,-6.00773 -1.55965,-1.95909 -3.32883,-3.68077 -5.97504,-5.8146 -5.13851,-4.14355 -7.02524,-6.83785 -7.99011,-11.41007 -0.50246,-2.38103 -0.17823,-7.48195 0.62927,-9.9 0.90446,-2.70838 2.36347,-5.70545 2.87261,-5.90083 0.23416,-0.0899 0.42574,-0.39488 0.42574,-0.67785 0,-0.28297 0.68467,-1.50837 1.5215,-2.72311 5.79766,-8.41596 19.09781,-21.59339 28.9285,-28.66158 5.73672,-4.12467 18.61293,-9.41145 25.88721,-10.6289 2.01141,-0.33664 2.46957,-0.30508 5.7,0.39263 2.50503,0.54105 5.66439,0.9004 11.01279,1.25261 l 7.5,0.49392 6.15,2.07365 c 3.3825,1.14051 7.2975,2.34402 8.7,2.67446 2.65296,0.62505 4.8,0.78448 4.8,0.35643 0,-0.5226 -1.84641,-2.99428 -3.89952,-5.22002 -1.59117,-1.72496 -2.43396,-2.39808 -3.29169,-2.62904 -0.87309,-0.2351 -1.22748,-0.52437 -1.46016,-1.19179 -0.18792,-0.53913 -1.04331,-1.42348 -2.20293,-2.27757 -2.43525,-1.79361 -3.44658,-2.28225 -6.46791,-3.12512 -2.70441,-0.75445 -3.4515,-1.27994 -2.75202,-1.935734 0.23334,-0.218752 2.2767,-1.221769 4.54083,-2.228928 8.02326,-3.569004 10.05396,-3.982143 15.98718,-3.252537 11.08452,1.363064 23.01213,5.49608 30.74373,10.652949 2.74137,1.82847 5.45988,3.09171 5.9721,2.77513 0.72006,-0.44502 -1.12848,-4.7486 -3.42288,-7.968772 -2.34147,-3.286278 -7.16346,-7.528962 -12.18864,-10.724364 -0.93054,-0.591717 -1.77942,-1.217421 -1.88634,-1.390452 -0.2586,-0.418419 0.80193,-2.456553 1.97124,-3.78831 2.67018,-3.041154 7.63839,-4.32327 14.44068,-3.726613 10.6524,0.934369 24.19026,5.507911 32.61633,11.01889 3.17307,2.075313 5.24397,3.101886 5.81523,2.882676 0.38325,-0.147066 0.38049,-0.364188 -0.0219,-1.720071 -1.09233,-3.679575 -4.26747,-8.356413 -7.9812,-11.755974 -1.18911,-1.088511 -4.08939,-3.262506 -6.44511,-4.831098 -5.80596,-3.866034 -6.94545,-5.629275 -4.47063,-6.917856 1.38567,-0.721494 5.82729,-0.821262 13.40373,-0.30108 4.84725,0.332802 8.16459,0.381189 13.35,0.194727 17.17737,-0.617676 27.70329,-0.936138 32.59764,-0.986241 5.22798,-0.05352 5.3079,-0.04467 6.075,0.673059 0.95835,0.896637 1.0116,2.126514 0.1764,4.074936 -0.33051,0.771087 -0.52506,1.524777 -0.4323,1.674873 0.18675,0.302166 8.17224,0.312531 9.55869,0.01239 0.92988,-0.201288 1.32279,-0.742215 4.93191,-6.789507 0.98472,-1.65 2.17344,-3.363915 2.64153,-3.808698 1.21305,-1.152576 3.71355,-2.178471 8.59722,-3.527211 2.33964,-0.646149 5.50857,-1.653987 7.04202,-2.239641 3.49113,-1.333311 5.63412,-1.889367 8.31189,-2.156751 1.87254,-0.186978 2.24514,-0.336849 3.43989,-1.383627 2.02776,-1.776636 4.71573,-2.918103 14.56011,-6.183117 9.34476,-3.099306 16.58652,-5.85084 20.13543,-7.650528 1.13553,-0.575826 5.40819,-3.27792 9.49485,-6.00465 4.22655,-2.820079 9.01254,-5.74205 11.1,-6.776827 3.58833,-1.778783 7.24914,-2.963717 8.12181,-2.628852 0.27918,0.107139 0.81978,1.760435 1.49703,4.578387 0.58305,2.425881 1.1835,4.534126 1.33437,4.68499 0.16572,0.165729 1.22856,-0.145279 2.6853,-0.785769 3.21972,-1.415624 6.33648,-2.148537 6.84714,-1.610127 0.20472,0.215831 1.9935,7.277421 3.97506,15.692421 3.21708,13.661709 3.63993,15.777462 3.94917,19.759005 0.31119,4.006476 0.42699,4.580904 1.1412,5.66013 0.90942,1.374222 0.89622,1.075224 1.04331,23.630865 0.0728,11.170347 0.0482,11.745897 -0.74919,17.509747 l -0.82449,5.95974 1.40694,3.04026 c 2.00922,4.34168 2.25987,4.55246 2.65218,2.23037 0.49503,-2.92999 2.66055,-7.44012 3.57234,-7.44012 0.20346,0 1.97814,3.46522 3.94374,7.70049 2.0889,4.50097 4.73784,9.62753 6.37536,12.33841 1.69962,2.81373 4.03515,7.35586 5.93796,11.54814 3.07782,6.78109 3.18681,7.09849 5.83365,16.98659 l 2.69721,10.07637 1.35054,13.65 c 1.18536,11.98057 1.32777,14.18202 1.16463,18 -0.50241,11.75657 -2.34156,21.02467 -7.37235,37.15202 -0.9858,3.16021 -1.42596,5.00522 -1.23873,5.19245 0.41784,0.41783 3.64803,-3.20429 5.92557,-6.64447 5.23839,-7.91261 12.41769,-24.00171 13.78821,-30.9 0.27867,-1.4025 0.95856,-4.1025 1.51089,-6 1.32627,-4.55614 3.01206,-18.53466 2.7135,-22.5 -0.45861,-6.09094 -1.16736,-9.81323 -3.77013,-19.8 -0.79554,-3.0525 -1.67064,-6.9675 -1.94466,-8.7 -0.27402,-1.7325 -0.95097,-4.905 -1.50432,-7.05 -0.55338,-2.145 -1.16106,-4.96139 -1.35045,-6.25864 -0.18939,-1.29726 -0.8028,-3.79476 -1.36317,-5.55 -0.56037,-1.75525 -1.02135,-3.29261 -1.02438,-3.41636 -0.0186,-0.75491 0.92754,0.25827 3.78165,4.05 5.43771,7.22402 7.67175,10.83174 9.26931,14.96889 0.78714,2.03836 1.80942,4.65111 2.27181,5.80611 0.82743,2.067 0.8409,2.08154 0.85617,0.92485 0.009,-0.64633 -0.38085,-2.67133 -0.86532,-4.5 -0.48447,-1.82866 -0.96855,-4.13485 -1.07571,-5.12485 -0.10719,-0.99 -0.74589,-3.58865 -1.41936,-5.77479 -1.76538,-5.73058 -1.6182,-5.69434 3.34932,0.82479 5.58396,7.32811 7.46181,10.44852 9.54639,15.86325 3.35361,8.71105 6.67362,18.27001 7.60146,21.8862 0.49398,1.9253 1.63368,5.19868 2.5326,7.27417 2.36718,5.46538 4.58154,13.96319 5.60283,21.50138 0.20679,1.52625 0.48447,2.775 0.61707,2.775 0.66231,0 1.60941,-4.97203 2.02779,-10.64541 0.22164,-3.00564 0.18675,-4.80203 -0.15282,-7.86464 -0.54399,-4.90646 -0.25062,-7.81254 0.66747,-6.61164 0.86571,1.13243 5.31153,12.30611 6.22173,15.63708 3.0315,11.09439 4.29801,22.45033 3.93516,35.28461 -0.39894,14.11044 -0.33861,13.767 -5.66451,32.25 -2.56743,8.91 -5.29407,18.01816 -6.05922,20.24035 -3.26172,9.47302 -6.97026,17.56556 -10.61694,23.16764 -4.6779,7.18626 -12.8766,17.28036 -19.22784,23.67297 -3.48459,3.5073 -4.37085,4.23171 -6.30456,5.15307 -1.2375,0.58965 -2.76168,1.1655 -3.38709,1.27968 -0.94461,0.17247 -1.24359,0.41739 -1.76631,1.44696 -0.84942,1.67313 -4.83573,5.56368 -8.4966,8.29251 -1.65,1.22991 -5.43,4.27377 -8.4,6.7641 -5.16087,4.32738 -5.73258,4.71285 -12.9105,8.70531 -4.13079,2.29758 -8.48064,4.50867 -9.66636,4.91352 -2.34201,0.79965 -3.07149,1.51389 -1.5462,1.51389 1.3008,0 4.5513,-0.50244 9.72306,-1.50294 2.475,-0.4788 6.04626,-1.09107 7.93614,-1.36065 3.84108,-0.54786 10.23441,-2.36526 16.4388,-4.67292 5.20149,-1.93467 5.88774,-2.28621 12.33054,-6.31632 2.91198,-1.82154 6.71202,-4.19253 8.44452,-5.2689 3.85035,-2.39214 8.75421,-5.92524 11.4924,-8.27997 2.84601,-2.4474 14.96463,-15.47517 18.59838,-19.99365 6.60468,-8.21268 10.49724,-15.12897 15.47892,-27.50282 1.74516,-4.33472 1.84656,-4.72893 2.1606,-8.4 0.18123,-2.1185 0.39546,-10.33353 0.47604,-18.2556 0.13824,-13.58792 0.11157,-14.59897 -0.4707,-17.85 -0.33951,-1.89543 -0.76404,-5.46492 -0.94341,-7.93221 -0.38379,-5.27895 -0.60798,-6.42413 -2.98206,-15.23293 -0.99036,-3.6746 -2.07297,-7.96359 -2.40585,-9.53109 -0.77202,-3.63534 -1.10619,-7.2 -0.675,-7.2 0.63795,0 2.00589,2.02471 3.44571,5.1 0.81114,1.7325 3.07722,6.0525 5.03577,9.6 2.28069,4.13104 4.0353,7.7443 4.88028,10.05 0.72564,1.98 1.73799,4.41 2.2497,5.4 0.9084,1.75749 0.93069,1.77605 0.94479,0.78573 0.008,-0.55785 -0.78861,-4.01243 -1.77009,-7.67686 -1.9662,-7.34098 -2.88204,-11.5417 -3.19716,-14.66445 -0.19185,-1.9011 -0.16548,-2.04749 0.35103,-1.94803 0.85668,0.16499 2.66613,2.77574 3.831,5.52753 0.5769,1.36286 2.69139,5.42501 4.69884,9.027 2.47362,4.43845 4.12776,7.82804 5.13264,10.51755 0.81549,2.18266 2.86797,6.77266 4.56108,10.2 1.69311,3.42735 3.37677,7.14395 3.74151,8.25912 2.067,6.3199 4.56027,26.63284 4.56387,37.18205 0.003,6.10788 -0.57606,10.76733 -1.91688,15.44853 -0.55797,1.94802 -1.16451,4.28433 -1.34793,5.19183 -0.52497,2.59782 -0.93348,7.85793 -0.93348,12.02031 0,2.14806 -0.33,6.66897 -0.75495,10.34295 -0.41523,3.58977 -0.67875,6.60306 -0.5856,6.69618 0.4092,0.4092 1.15452,-0.55926 1.64139,-2.13282 0.32484,-1.04988 1.33359,-2.83614 2.62128,-4.64163 1.15128,-1.61424 3.74433,-5.66874 5.76237,-9.00999 2.01801,-3.34125 3.81096,-6.075 3.9843,-6.075 0.20829,0 0.24309,0.58482 0.10263,1.725 -0.11688,0.94875 -0.32175,4.7625 -0.45528,8.475 -0.38532,10.71492 -2.55432,27.90843 -4.55727,36.12564 -2.38956,9.80322 -5.17176,16.41828 -11.36106,27.01248 -3.54849,6.07392 -4.46694,7.16469 -11.24442,13.35405 -12.23358,11.17197 -21.23892,17.67216 -28.77408,20.76954 -1.98726,0.81687 -5.13,2.29293 -6.98388,3.28011 -2.70366,1.4397 -3.94974,1.91139 -6.29691,2.38356 -1.60941,0.32376 -5.49624,1.47258 -8.63736,2.55297 -3.14115,1.08039 -7.66866,2.43417 -10.06116,3.00837 -2.3925,0.5742 -6.78,1.78857 -9.75,2.69859 -2.97,0.91005 -7.2225,1.97694 -9.45,2.3709 -2.2275,0.39396 -7.695,1.46475 -12.15,2.37954 l -8.1,1.66323 -7.65,-0.0132 c -10.82964,-0.0186 -30.47163,-0.7869 -34.05,-1.332 -1.65,-0.25137 -5.67999,-0.54369 -8.95551,-0.64965 -5.33073,-0.17241 -5.94444,-0.14298 -5.85,0.28059 0.15846,0.71064 5.56161,6.94545 8.29215,9.56847 1.31874,1.26684 3.05373,2.63313 3.85554,3.03621 2.83266,1.4241 12.02769,4.97016 17.50782,6.75189 12.30312,4.00011 21.10623,5.6343 37.65,6.98931 7.33563,0.60084 8.62374,0.63027 13.65,0.312 10.69812,-0.67746 17.06367,-2.06601 28.60665,-6.24 11.00217,-3.97845 14.17155,-5.94336 21.66708,-13.43301 4.63449,-4.63086 11.87922,-12.75771 15.72996,-17.64525 5.70399,-7.23972 9.58626,-12.54927 11.96946,-16.36989 1.48449,-2.37987 7.36626,-14.83335 10.0149,-21.20457 0.96048,-2.31042 1.59753,-3.36204 2.77152,-4.575 0.83841,-0.86625 1.7433,-1.575 2.01084,-1.575 0.31356,0 0.70128,0.57411 1.0908,1.6152 1.52331,4.07139 2.13879,8.19876 2.13879,14.34252 0,5.08035 0.24921,5.14638 2.25192,0.5964 3.11091,-7.0677 3.21681,-7.26033 4.74891,-8.63781 0.8211,-0.73824 1.69461,-1.30266 1.94112,-1.25427 0.24651,0.0484 0.77967,0.96546 1.18482,2.03796 1.85736,4.91673 2.39466,11.20611 1.90935,22.35 -0.24492,5.62353 -0.5256,8.28747 -1.51722,14.4 -2.14638,13.23039 -2.33778,14.01222 -4.22265,17.25 -1.67289,2.87367 -6.90195,9.69987 -13.2345,17.27676 -2.10918,2.52363 -2.40471,3.05223 -3.77676,6.75555 -0.8187,2.20974 -1.77825,4.72644 -2.13237,5.59269 -0.59391,1.45284 -0.60324,1.575 -0.12003,1.575 0.94929,0 4.34949,-2.56536 8.8707,-6.69276 5.78592,-5.28189 9.49872,-7.79682 9.49596,-6.43224 0,0.63264 -1.40199,5.59458 -2.56182,9.075 -2.07489,6.22644 -4.02606,10.80492 -6.32847,14.85 -1.26786,2.2275 -2.74329,5.11197 -3.27876,6.40992 -0.85503,2.07252 -1.13229,2.44938 -2.27688,3.09453 -1.91928,1.08183 -3.5172,2.74482 -7.2984,7.59555 -3.88929,4.98936 -5.43984,6.57687 -9.08358,9.3 -1.43508,1.0725 -3.1008,2.60427 -3.70161,3.40395 -0.86649,1.15332 -2.69763,2.50998 -8.85603,6.56121 -8.40714,5.53056 -10.491,6.57489 -22.97571,11.51445 -4.67322,1.84896 -5.90277,2.22138 -7.35,2.2263 -1.15461,0.004 -2.59395,0.30888 -4.28799,0.90846 -3.86982,1.36965 -7.04223,1.74648 -17.55,2.08473 -5.28,0.16998 -12.435,0.52371 -15.9,0.78609 -4.54374,0.34407 -13.24143,0.54135 -31.2,0.70767 -27.5046,0.25476 -25.22826,0.10968 -40.11003,2.5566 -4.50447,0.74064 -10.95747,1.62207 -14.33997,1.95876 -3.3825,0.33669 -7.5,0.86622 -9.15,1.17675 -1.65,0.31053 -5.43,0.85167 -8.4,1.20255 -6.12603,0.72372 -22.48647,4.38789 -42.75,9.57456 -11.23887,2.87673 -11.62677,3.0006 -14.4,4.599 -1.5675,0.90348 -4.1325,2.36223 -5.7,3.24171 -3.77184,2.11626 -9.52044,5.87001 -15.6,10.18659 -2.7225,1.93299 -6.9075,4.77366 -9.3,6.31257 -2.3925,1.53891 -6.51,4.36047 -9.15,6.27015 -2.81643,2.0373 -7.25937,4.84641 -10.7514,6.79773 -8.56614,4.78668 -19.61664,12.7965 -27.9486,20.25825 -9.07062,8.12322 -15.74895,15.66402 -26.54388,29.97192 l -5.77173,7.65 -4.27539,8.55 c -4.35435,8.70792 -11.71317,25.19196 -12.75849,28.57947 -1.68699,5.46702 -2.29593,9.16182 -3.89196,23.61414 l -1.20855,10.94361 0,12.91536 c 0,9.5697 0.11478,13.84557 0.44307,16.50639 0.24369,1.97505 0.7149,6.29103 1.04712,9.59103 1.53057,15.20376 2.5068,21.19611 5.54718,34.05 4.15647,17.57247 4.32075,18.06843 9.04131,27.29718 1.72938,3.38097 3.6267,7.49847 4.21629,9.15 1.23837,3.46887 1.86708,4.57002 7.02429,12.30282 5.54076,8.30784 8.86563,14.48511 8.17059,15.18015 -0.13656,0.13656 -0.79494,-0.0623 -1.4631,-0.44175 z M 151.80715,391.04104 c 5.3547,-0.63141 9.99465,-0.91572 15.15,-0.92838 6.05088,-0.0147 7.06398,-0.25173 10.2,-2.38482 2.394,-1.62837 7.53996,-6.58146 9.96684,-9.59331 1.06884,-1.32648 2.38119,-3.47466 3.22878,-5.28525 0.7854,-1.67772 1.9665,-3.84456 2.62467,-4.81518 1.64991,-2.43321 2.77971,-4.74363 2.77971,-5.68443 0,-1.40814 -0.93852,-2.82684 -4.02441,-6.08337 -1.66617,-1.75833 -4.21449,-4.50402 -5.66295,-6.10158 -1.44846,-1.59753 -3.44067,-3.55503 -4.42716,-4.35 -1.56597,-1.26195 -1.77177,-1.54662 -1.62165,-2.24325 0.15672,-0.72735 0.0105,-0.88395 -1.6545,-1.77135 -2.21604,-1.18113 -5.12385,-3.65427 -9.28317,-7.89546 -1.7181,-1.75191 -3.24357,-3.18531 -3.38988,-3.18531 -0.14634,0 -0.66072,0.20406 -1.14303,0.45348 -0.48231,0.24942 -1.9245,0.65394 -3.20484,0.89889 -3.04965,0.5835 -24.66444,8.20689 -28.13841,9.92424 -2.96534,1.46589 -3.9665,2.23161 -5.09826,3.89937 -0.93545,1.37847 -0.95382,2.44548 -0.13454,7.81596 1.25728,8.24163 4.21116,15.70638 9.63969,24.36048 2.554,4.07157 4.86817,7.03605 10.24761,13.12728 0.19002,0.21516 0.548,0.33927 0.7955,0.27579 0.2475,-0.0635 1.665,-0.25872 3.15,-0.4338 z m 201.13701,-17.11818 c 4.06785,-0.8301 7.79409,-2.21472 13.3875,-4.97472 14.02122,-6.91851 19.84833,-13.26831 25.03341,-27.27879 5.05665,-13.66341 5.58627,-16.77777 5.30112,-31.17225 -0.18063,-9.11899 -0.73419,-14.77336 -2.03331,-20.76961 -1.31604,-6.07418 -6.62157,-20.02199 -9.39636,-24.70212 -0.67614,-1.14047 -3.39864,-4.54463 -6.04998,-7.5648 -2.65134,-3.02017 -6.99201,-8.12372 -9.6459,-11.34122 -5.56809,-6.75052 -7.91424,-8.84944 -16.10067,-14.40405 -4.14531,-2.81265 -17.42178,-9.26659 -22.68282,-11.02654 -9.17139,-3.06807 -27.3387,-7.65073 -27.94128,-7.04813 -0.24708,0.24706 0.56292,0.78535 3.078,2.0455 1.87731,0.94061 5.03328,2.69041 7.01328,3.88844 1.98,1.19803 4.10319,2.38754 4.71822,2.64337 3.67566,1.5289 12.64416,7.2711 17.93178,11.48105 2.0625,1.64214 5.775,4.52045 8.25,6.39624 16.28661,12.34352 23.95026,21.32854 30.47043,35.72412 3.12537,6.90034 3.8355,9.14429 4.34148,13.71842 0.25134,2.27237 0.91893,6.89908 1.48347,10.28158 1.92315,11.52231 2.07972,13.10277 2.08017,21 3e-4,5.65221 -0.12051,8.04 -0.52308,10.33713 -1.13619,6.48312 -3.02076,12.42231 -5.14452,16.21287 -2.23116,3.98223 -9.40371,11.51346 -16.05795,16.86093 -3.26325,2.62245 -4.50417,3.29433 -14.31987,7.7535 -2.5134,1.14183 -4.6434,2.26773 -4.73331,2.502 -0.24528,0.63921 7.50066,0.26139 11.54019,-0.56292 z m -145.48812,-5.34621 c 0,-0.27903 -0.26124,-0.9339 -0.57918,-1.45527 -0.76488,-1.25445 -3.12405,-3.70203 -3.56829,-3.70203 -0.75114,0 -0.28116,1.10829 0.9909,2.33667 0.73281,0.70767 1.62987,1.81593 1.99344,2.46279 0.65748,1.16988 1.16526,1.32609 1.16313,0.35784 z m 105.33897,-23.12169 c 8.45415,-5.61429 11.4333,-10.37922 15.40278,-24.63561 3.8712,-13.90347 3.78243,-27.45768 -0.24999,-38.17084 -3.79464,-10.08146 -12.40011,-21.74744 -23.38398,-31.70039 -2.25867,-2.04668 -4.10667,-3.83543 -4.10667,-3.975 0,-0.13957 -0.20601,-0.25377 -0.4578,-0.25377 -0.47193,0 -6.06054,-3.93977 -8.6604,-6.10531 -2.39202,-1.99238 -11.43147,-5.83022 -19.47636,-8.269 -9.35094,-2.8347 -19.05144,-5.0338 -25.16862,-5.70571 -3.54648,-0.38954 -10.938,-0.42257 -11.16834,-0.0499 -0.0918,0.14854 2.2965,1.47439 5.3073,2.94633 3.01083,1.47194 7.17606,3.70212 9.25611,4.95595 2.08002,1.25383 4.91502,2.83441 6.3,3.5124 1.38495,0.67799 3.46311,1.82258 4.61811,2.54353 4.56768,2.85115 11.13207,6.75428 11.7,6.9567 1.05792,0.37706 8.91363,4.95 11.55,6.72344 1.4025,0.94344 4.3725,3.30557 6.6,5.24919 2.2275,1.94361 5.60439,4.84342 7.5042,6.44402 6.21138,5.23314 8.74632,8.41211 14.78757,18.54458 2.85042,4.78079 4.56,8.46469 5.80254,12.50378 l 0.83061,2.7 0.11457,11.55 c 0.0814,8.2047 0.009,12.15825 -0.25098,13.65 -0.92883,5.3358 -4.4757,13.22889 -8.55609,19.0404 -2.23065,3.17703 -2.82414,4.2096 -2.41956,4.2096 0.0621,0 1.91832,-1.19898 4.125,-2.66439 z m -106.2693,-2.81061 c 0.58758,-1.81824 0.99921,-5.45115 0.80634,-7.11675 -0.41796,-3.60954 -2.21856,-8.92257 -3.75522,-11.08062 -0.48321,-0.6786 -1.10334,-0.99024 -2.94099,-1.47795 -3.51411,-0.93264 -6.8196,-1.49058 -10.21704,-1.72458 -3.60225,-0.2481 -3.66315,-0.17637 -1.96698,2.31624 1.41336,2.07702 8.15829,10.17333 10.71237,12.85866 0.39234,0.4125 1.8993,2.1 3.34884,3.75 3.48567,3.96774 3.52287,3.99069 4.01268,2.475 z m -46.37052,-29.03973 c 3.19278,-1.06728 4.10196,-1.58718 4.10196,-2.3457 0,-0.76275 -0.3069,-1.00044 -7.01865,-5.43603 -5.06814,-3.34938 -6.9144,-4.37104 -12.23715,-6.77169 -13.93048,-6.28287 -25.39851,-10.42349 -32.36492,-11.68561 -2.35395,-0.42647 -6.34657,-1.30728 -8.87249,-1.95736 -5.028284,-1.2941 -7.726307,-1.72361 -8.004059,-1.27421 -0.09783,0.1583 0.862779,0.73725 2.134695,1.28657 1.271916,0.54931 8.657574,4.03768 16.412574,7.75194 12.53974,6.0059 19.31621,9.54176 29.4,15.34046 1.65,0.94884 4.19277,2.35785 5.6506,3.13113 1.45783,0.77331 3.28033,1.80939 4.04999,2.30244 1.69182,1.08375 2.62365,1.03653 6.74745,-0.34194 z m 64.47108,-7.86027 c -0.1674,-0.20625 -1.61214,-2.1975 -3.21057,-4.425 -1.88667,-2.62919 -3.24627,-4.22647 -3.87555,-4.55301 -0.53313,-0.27666 -2.00574,-1.6446 -3.27246,-3.03988 -2.63016,-2.89704 -6.79089,-6.4292 -11.86125,-10.06932 -3.86307,-2.77337 -11.96106,-6.92214 -20.16813,-10.33251 -5.739,-2.3848 -22.87194,-8.41449 -25.33116,-8.91494 -1.71921,-0.34986 -24.63529,-0.90921 -26.175,-0.6389 -1.76361,0.30962 -0.55326,0.62471 14.175,3.69015 5.62903,1.17158 8.83644,2.04466 14.7,4.00146 13.55046,4.52207 26.68191,10.20874 33.3,14.42079 1.485,0.94513 3.55968,2.10641 4.61043,2.58063 4.53708,2.0477 10.68675,6.03598 19.98942,12.96389 3.46494,2.5804 6.55272,4.69164 6.86175,4.69164 0.41181,0 0.4806,-0.10014 0.25752,-0.375 z m 13.13088,-37.39082 c 0,-1.47328 -10.6701,-12.67837 -15.75,-16.53969 -4.64097,-3.5277 -11.12223,-5.96274 -21.07338,-7.91739 -3.75465,-0.73751 -9.25662,-1.88508 -12.22662,-2.55017 -2.97,-0.66509 -6.345,-1.33851 -7.5,-1.49648 -3.56757,-0.48795 -9.92295,-0.73137 -10.5105,-0.40256 -0.50979,0.28529 -0.5079,0.3095 0.0366,0.47375 14.80752,4.46642 25.14132,7.91186 28.51098,9.50596 2.1246,1.00509 7.27401,3.31164 11.44314,5.12566 5.64666,2.45691 8.62221,3.95206 11.66502,5.86142 2.24661,1.40975 4.97799,2.92903 6.06975,3.37617 1.09173,0.44714 3.40248,1.71286 5.13498,2.81272 2.93625,1.86402 4.2,2.39078 4.2,1.75061 z m -184.392489,-14.29645 2.515422,-0.80126 1.107903,-2.70887 c 0.707166,-1.72905 1.003821,-2.81295 0.820152,-2.99661 -0.339045,-0.33905 -6.168582,0.60505 -6.788943,1.09947 -0.57285,0.45656 -2.634618,5.80941 -2.390046,6.20514 0.264567,0.42807 1.585725,0.20548 4.735512,-0.79787 z M 216.00715,193.77594 c 6.7914,-0.90459 11.80023,-2.3683 17.04066,-4.9797 5.69229,-2.83656 7.80387,-4.53774 16.63434,-13.40121 7.56339,-7.59167 8.175,-8.2837 8.175,-9.25004 0,-0.63537 -0.17028,-1.10981 -0.43473,-1.2113 -1.33578,-0.51258 -31.22445,6.49396 -51.83568,12.15138 -13.27902,3.64487 -27.78963,8.10316 -28.65459,8.80393 -0.88671,0.71838 -0.20811,1.23968 4.8,3.68742 5.47383,2.67537 8.50362,3.64484 14.025,4.48772 3.65475,0.55793 15.12294,0.39471 20.25,-0.2882 z m 180.78567,-25.15458 c 3.54999,-0.91958 7.71393,-2.7724 7.25715,-3.22919 -0.22128,-0.22129 -1.2489,-0.20552 -3.42939,0.0526 -1.7124,0.20271 -5.27343,0.38116 -7.91343,0.39657 l -4.8,0.028 -3.3,-1.32443 c -5.67366,-2.27709 -11.59755,-5.51598 -13.41768,-7.33612 -0.24381,-0.24379 -1.74195,-1.05014 -3.32925,-1.79189 -9.08802,-4.24685 -15.43848,-10.65925 -19.35879,-19.54756 -0.76782,-1.74087 -0.92718,-1.94609 -0.93183,-1.2 -0.006,0.98996 1.35156,5.71255 2.58747,9 2.15916,5.74327 4.38732,8.92716 12.28164,17.54959 l 3.83661,4.19049 2.26593,0.74666 c 4.26891,1.40669 10.18242,2.67437 15.3159,3.28328 0.5775,0.0685 3.075,0.0807 5.55,0.027 3.5967,-0.078 5.07924,-0.24758 7.38567,-0.84503 z m -13.85034,-29.67701 c 2.32281,-1.40773 3.4497,-3.49136 3.44331,-6.36675 -0.006,-2.79318 -0.90528,-4.68522 -3.69465,-7.775 -1.17516,-1.30171 -2.41707,-2.82046 -2.75979,-3.375 -0.82167,-1.32948 -1.30353,-1.27196 -1.90338,0.22718 -1.40853,3.52031 -1.73259,7.83782 -0.89334,11.90222 0.56367,2.72974 1.06842,4.02258 2.09706,5.3712 0.95703,1.2547 1.66206,1.25777 3.71079,0.0161 z m 36.17862,-14.18646 c -0.61263,-4.08542 -3.40353,-8.91478 -7.87131,-13.62049 l -1.74264,-1.83544 -3.3,-0.72596 c -4.67295,-1.028 -8.91375,-1.44098 -10.95,-1.06635 -2.19762,0.40431 -6.62115,2.61472 -9.42753,4.71085 -2.16069,1.61386 -2.8074,2.49885 -1.82607,2.49885 0.24555,0 1.76373,-0.42198 3.3738,-0.93772 2.50821,-0.80346 3.22824,-0.91489 5.0286,-0.77825 4.68186,0.35534 9.37026,2.26066 12.93366,5.25609 1.57065,1.3203 2.59815,1.92718 3.9,2.30348 2.44626,0.7071 6.02226,2.61642 7.89618,4.21597 0.8637,0.73724 1.70967,1.34043 1.87992,1.34043 0.19728,0 0.2355,-0.49387 0.10539,-1.36146 z"
           style="fill:#bd0404" />
        <path
           inkscape:connector-curvature="0"
           id="path4149"
           d="m 228.12841,875.83798 c -6.45342,-4.30335 -17.90937,-14.91162 -19.31745,-17.88804 -0.50238,-1.06194 -1.20774,-1.91562 -2.17377,-2.63082 -3.38214,-2.50395 -6.99933,-6.89394 -16.75755,-20.33766 -3.20811,-4.41978 -6.64824,-9.06192 -7.64472,-10.31589 -0.99648,-1.25397 -2.50836,-3.3861 -3.35973,-4.73808 -0.85134,-1.35198 -2.64192,-3.94515 -3.97902,-5.76264 -3.01437,-4.09731 -3.61755,-5.12559 -5.53974,-9.44376 -1.4952,-3.35898 -5.14677,-9.30174 -5.71551,-9.30174 -0.40683,0 -0.36951,0.39228 0.47604,5.00502 0.88017,4.80156 2.45049,10.97703 3.6108,14.19987 0.44457,1.23483 3.17712,6.83511 6.07236,12.44511 2.89524,5.61 5.72697,11.20128 6.29274,12.42504 0.5658,1.22376 2.51892,4.73376 4.34031,7.8 4.99866,8.41509 7.63881,14.03013 6.93006,14.73888 -0.37911,0.37911 -4.38762,-0.3666 -7.18911,-1.33737 -6.43374,-2.22945 -14.17479,-6.88767 -21.41697,-12.88785 -3.36126,-2.78481 -9.74334,-9.02046 -14.01008,-13.6887 -4.03894,-4.41897 -6.23618,-7.56618 -11.12707,-15.93783 -4.28008,-7.32609 -4.77894,-8.28648 -6.34085,-12.20694 -0.65598,-1.64655 -2.86649,-6.28131 -4.91225,-10.29948 -4.68222,-9.19656 -6.15445,-12.99597 -9.16634,-23.65575 -2.19988,-7.78587 -2.45785,-8.98404 -2.88636,-13.40649 -0.25882,-2.67105 -0.59707,-5.57355 -0.75167,-6.45 -0.15461,-0.87642 -0.89942,-7.60101 -1.65515,-14.94351 -0.75572,-7.3425 -1.439,-13.53714 -1.51839,-13.76583 -0.26333,-0.75861 -1.24771,0.50127 -2.6417,3.381 -2.40395,4.96614 -4.11956,10.24533 -6.78709,20.88483 -4.374875,17.44932 -5.372066,26.68626 -3.906227,36.18327 0.328251,2.1267 0.598251,5.04774 0.6,6.49116 0.0024,1.90749 0.371982,4.45545 1.353177,9.32676 0.969618,4.81386 1.34871,7.4133 1.34541,9.22557 -0.006,3.37761 -0.28624,3.7776 -1.561935,2.23062 -0.540912,-0.65592 -1.793475,-2.09067 -2.783475,-3.18834 -0.99,-1.09764 -3.205782,-3.55749 -4.92396,-5.46633 -7.234242,-8.03697 -9.498492,-12.432 -12.159759,-23.60271 -0.609291,-2.5575 -1.968285,-7.755 -3.019986,-11.55 -2.544006,-9.17988 -2.746872,-10.00881 -3.436062,-14.04015 -0.536292,-3.13695 -0.595152,-5.01435 -0.628923,-20.06034 -0.04156,-18.51324 0.02028,-19.446 2.114337,-31.89951 0.638133,-3.795 1.316646,-8.655 1.507806,-10.8 0.291597,-3.27198 0.686601,-5.10774 2.452977,-11.4 1.416669,-5.04654 2.635056,-8.68779 3.724488,-11.13093 0.890496,-1.99701 1.619082,-3.8508 1.619082,-4.11948 0,-1.26717 2.505717,-10.44024 3.988029,-14.59959 2.370606,-6.6519 3.339219,-12 2.173359,-12 -1.305792,0 -10.280091,8.70186 -14.26422,13.8312 -7.971444,10.26279 -13.207485,22.07412 -14.08332,31.7688 -0.307023,3.39843 -0.780354,5.19309 -1.322949,5.016 -0.501765,-0.16374 -2.141988,-4.14747 -3.053406,-7.416 -0.437091,-1.5675 -1.609683,-5.6175 -2.605761,-9 -0.996078,-3.3825 -2.295663,-7.9725 -2.887971,-10.2 l -1.076919,-4.05 0.0044,-7.05 c 0.0037,-5.80794 0.123405,-7.81638 0.679743,-11.4 1.134783,-7.30965 2.265768,-11.69175 3.976062,-15.4056 0.847089,-1.83942 2.126874,-5.05107 2.843964,-7.137 1.475664,-4.29252 4.356273,-9.53046 9.182601,-16.69716 1.455348,-2.16105 13.291929,-15.18369 15.91152,-17.50587 4.854207,-4.30311 8.835783,-6.85515 18.045888,-11.56668 8.94887,-4.57791 9.32897,-5.29698 5.12082,-9.68769 -0.86976,-0.9075 -3.82145,-4.21005 -6.559302,-7.33899 -3.873882,-4.42722 -5.270583,-6.25695 -6.297531,-8.25 -3.249774,-6.3069 -5.267823,-14.8542 -5.76963,-24.43683 -0.172329,-3.29085 -0.138351,-3.85101 0.225132,-3.71154 0.565194,0.2169 6.663756,4.49313 6.913833,4.84791 0.106905,0.15165 0.646905,0.44595 1.2,0.65397 0.553098,0.20805 2.276028,0.87129 3.828735,1.47393 6.769843,2.6274 11.033323,3.14829 25.826893,3.15534 11.20035,0.005 11.83887,-0.0261 21.09235,-1.04415 5.24829,-0.57729 10.58078,-1.05003 11.84999,-1.05048 5.20113,-0.003 10.62801,-1.1373 14.87778,-3.11271 2.81151,-1.30686 8.62851,-5.23806 12.17988,-8.23134 1.5675,-1.32117 5.67129,-5.32647 9.11955,-8.90067 6.90714,-7.15944 9.75456,-9.72141 16.67508,-15.00348 2.55456,-1.94973 5.43642,-4.20393 6.40419,-5.00931 1.79133,-1.49076 4.79397,-3.14091 8.30118,-4.56204 1.0725,-0.43458 5.055,-2.34267 8.85,-4.2402 l 6.9,-3.45006 11.25,-3.13056 c 6.1875,-1.72182 13.09839,-3.46893 15.35754,-3.88245 4.5909,-0.84033 16.96128,-4.5795 19.25172,-5.81919 2.5314,-1.37007 4.08273,-3.71886 6.6006,-9.99369 3.72288,-9.27777 6.2679,-18.59775 6.67818,-24.45588 0.31428,-4.4868 -0.92676,-13.91307 -2.14983,-16.32933 -0.84894,-1.67715 -1.99398,-2.91255 -7.89351,-8.51655 -5.22723,-4.96539 -7.59,-6.76257 -10.47921,-7.97076 -5.83245,-2.43891 -13.86777,-2.42586 -23.15079,0.0376 -10.09959,2.68017 -19.58988,7.20339 -26.2647,12.51807 -5.28507,4.20816 -22.5156,22.44774 -25.59237,27.09111 -2.23434,3.37203 -6.1833,10.31385 -7.75695,13.63593 -1.68132,3.54927 -2.15781,5.78892 -2.39865,11.27421 -0.24594,5.60148 0.0983,7.76613 2.17956,13.70568 0.88788,2.53392 1.64901,5.1672 1.69137,5.85177 l 0.077,1.24464 -1.00974,-0.0988 c -2.85852,-0.27981 -9.02097,-2.95506 -16.16502,-7.01754 -2.1861,-1.24317 -4.79253,-2.56611 -5.79204,-2.93988 -2.48217,-0.92829 -2.66712,-0.7053 -2.0181,2.43336 0.38811,1.87695 1.18932,3.792 3.60555,8.61804 4.37631,8.74095 4.93422,10.77732 3.30435,12.0612 -1.21956,0.96069 -2.89872,0.61989 -9.07017,-1.84095 -8.42001,-3.35742 -8.46195,-3.38226 -14.29857,-8.46885 -2.64411,-2.30436 -4.00626,-3.15966 -4.00626,-2.51556 0,0.21801 1.62,3.95037 3.6,8.29413 1.98,4.34379 3.6,8.08131 3.6,8.30562 0,1.1349 -4.24431,0.7221 -8.68282,-0.8445 -3.68707,-1.3014 -13.11797,-5.83617 -15.57511,-7.48923 -0.76564,-0.51507 -3.02121,-2.60385 -5.01237,-4.64175 -1.99117,-2.03787 -3.77992,-3.70524 -3.975,-3.70524 -0.19509,0 -0.3547,0.24225 -0.3547,0.53835 0,0.96012 2.51729,5.58609 4.69963,8.63643 2.72053,3.80259 3.77647,5.71695 4.7316,8.57811 0.96115,2.87916 0.96686,3.24711 0.0504,3.24711 -2.93186,0 -10.63427,-3.82377 -19.2316,-9.54735 -6.74317,-4.48917 -8.46951,-5.95563 -11.72385,-9.95901 -7.395442,-9.09759 -12.28126,-19.16604 -15.835906,-32.63385 -1.980036,-7.50192 -2.058858,-7.94829 -2.25696,-12.78072 l -0.183294,-4.47093 -1.65,-0.51501 c -0.9075,-0.28326 -2.863914,-0.88464 -4.347588,-1.33638 -6.631482,-2.01921 -8.542023,-4.05777 -9.482232,-10.11756 -0.579204,-3.73305 0.07093,-6.25944 1.902006,-7.3911 1.158306,-0.71586 5.402418,-1.98651 7.652814,-2.29116 1.107051,-0.14988 1.575,-0.34725 1.575,-0.66426 0,-0.24807 -1.704864,-2.9397 -3.788589,-5.98143 -3.18786,-4.65348 -4.045425,-5.70087 -5.408373,-6.60555 -1.938708,-1.28685 -3.096831,-2.6586 -5.281452,-6.25569 -3.549873,-5.84505 -4.964025,-9.22926 -7.449942,-17.82834 -0.974403,-3.37059 -1.771644,-6.23934 -1.771644,-6.375 0,-0.13566 0.216648,-0.24666 0.48144,-0.24666 0.529611,0 9.450837,5.27817 9.76293,5.77614 0.106905,0.17058 0.646905,0.46608 1.2,0.65667 0.553098,0.19059 6.33813,3.50958 12.85563,7.37553 6.5175,3.86595 15.4275,8.85435 19.8,11.08533 5.70527,2.91099 7.95098,4.20132 7.95348,4.56981 0.002,0.28242 0.13692,0.64626 0.3,0.80856 0.16309,0.1623 3.57744,0.58341 7.58744,0.93582 l 7.29093,0.64071 3.80907,-0.80553 c 2.095,-0.44304 5.29408,-1.182 7.10908,-1.64214 7.39895,-1.87572 19.98144,-3.2841 29.55,-3.30759 6.05088,-0.0147 7.06398,-0.25173 10.2,-2.38482 2.394,-1.62837 7.53996,-6.58146 9.96684,-9.59331 1.06884,-1.32648 2.38119,-3.47466 3.22878,-5.28525 0.7854,-1.67772 1.9665,-3.84456 2.62467,-4.81518 1.64991,-2.43321 2.77971,-4.74363 2.77971,-5.68443 0,-1.40814 -0.93852,-2.82684 -4.02441,-6.08337 -1.66617,-1.75833 -4.21449,-4.50402 -5.66295,-6.10158 -1.44846,-1.59753 -3.44067,-3.55503 -4.42716,-4.35 -1.57518,-1.26936 -1.77234,-1.54383 -1.61931,-2.25396 0.15477,-0.71802 0.0291,-0.88221 -1.12095,-1.46604 -2.47215,-1.2549 -4.01964,-2.51688 -8.64522,-7.05027 -6.86685,-6.72996 -8.34441,-7.93959 -12.2466,-10.02558 l -3.49806,-1.86999 -1.39461,0.78396 c -0.76704,0.43119 -2.45575,0.98631 -3.75268,1.23363 -3.01103,0.57417 -24.59355,8.17755 -28.15805,9.91986 -2.93471,1.43451 -3.94435,2.20863 -5.09826,3.909 -0.89843,1.3239 -0.94564,2.44935 -0.293,6.98553 1.73292,12.04482 7.64776,24.07941 17.27009,35.13849 3.06758,3.52563 4.91029,6.00663 5.87818,7.9143 0.63588,1.25331 0.68257,1.52469 0.32403,1.88322 -0.35855,0.35856 -1.09085,0.27306 -5.08203,-0.59325 l -4.66311,-1.0122 -7.31795,-3.83853 c -4.02487,-2.11122 -10.01795,-5.3205 -13.31795,-7.13175 -3.3,-1.81128 -6.84442,-3.75663 -7.87649,-4.323 -2.591257,-1.42209 -5.519155,-3.86172 -10.27351,-8.56032 -4.356276,-4.30518 -6.019698,-6.6633 -6.596046,-9.35073 -0.195438,-0.91128 -0.649728,-1.86582 -1.123194,-2.36001 -0.437265,-0.45642 -1.140567,-1.46898 -1.562892,-2.25015 -1.136829,-2.10276 -1.893636,-2.35755 -4.748136,-1.59858 -1.275852,0.33924 -5.019732,1.254 -8.319732,2.03283 l -6,1.41606 -6.3,0.007 c -8.365596,0.01 -10.913535,-0.5406 -14.64987,-3.16452 -1.587678,-1.11498 -2.186154,-1.38981 -2.485527,-1.14135 -0.849315,0.70488 -4.055664,9.7176 -5.486007,15.42063 -0.777087,3.0984 -3.022452,18.52077 -3.0489,20.9415 -0.03023,2.76678 -0.36777,1.68093 -2.078247,-6.68565 -1.746642,-8.54349 -1.803513,-9.71943 -0.888072,-18.36381 0.736965,-6.95907 1.192896,-9.30516 2.609334,-13.42683 0.592509,-1.72416 1.077288,-3.69891 1.077288,-4.38834 0,-1.71006 -1.036419,-3.37902 -4.241631,-6.83043 -1.450992,-1.56243 -3.176217,-3.62955 -3.833841,-4.5936 -1.530114,-2.24313 -3.635865,-3.70392 -5.33343,-3.6999 -0.694938,0.003 -1.964151,0.33948 -2.88417,0.76773 -3.627651,1.68858 -10.25184,9.83421 -12.268332,15.08616 -0.967818,2.52066 -1.883889,6.52656 -2.445312,10.69317 -0.462276,3.43077 -0.719364,3.94776 -1.185279,2.38359 -0.63237,-2.12295 -0.741222,-9.25455 -0.186159,-12.19653 0.902688,-4.78449 3.060132,-10.08465 5.695569,-13.99221 0.595422,-0.88284 1.082586,-1.70133 1.082586,-1.81887 0,-0.42516 1.730145,-1.78875 5.914407,-4.66134 2.345427,-1.61019 4.418052,-3.11277 4.605837,-3.33903 0.265623,-0.32007 0.139143,-0.66681 -0.569673,-1.56177 -1.356591,-1.71282 -3.529737,-6.24582 -4.057629,-8.46384 -0.255255,-1.0725 -0.692076,-3.21027 -0.970713,-4.75062 -0.332514,-1.83817 -0.659409,-2.85923 -0.951249,-2.97122 -0.667149,-0.25601 -3.835257,1.42133 -6.554097,3.47006 -4.08018,3.07449 -8.022729,7.65378 -11.351571,13.18488 -0.816579,1.35678 -1.611417,2.4669 -1.766304,2.4669 -0.990594,0 1.227192,-7.66887 3.569589,-12.34329 2.999298,-5.98528 5.611293,-9.27565 10.231335,-12.88854 4.176432,-3.26599 6.189159,-5.14089 7.521531,-7.00647 1.650621,-2.31119 1.549239,-2.27477 4.516428,-1.62239 4.325172,0.95095 6.425145,1.01524 9.723498,0.29769 8.899323,-1.93604 16.454475,-6.76434 21.679464,-13.85477 2.426316,-3.29257 2.733948,-4.03458 6.211491,-14.98223 0.497919,-1.5675 1.570953,-4.23869 2.384517,-5.93597 2.597268,-5.4185 5.445219,-15.50708 4.536162,-16.0689 -0.14067,-0.0869 -1.733394,0.24037 -3.539391,0.72735 -1.805997,0.48698 -6.996132,1.56064 -11.533632,2.3859 -12.622179,2.29566 -18.236499,3.77329 -24.109242,6.34528 -4.028463,1.76429 -6.320157,3.53737 -8.026749,6.2103 -1.187652,1.86014 -1.382493,3.53168 -0.592224,5.08073 0.672222,1.31767 2.499552,2.60458 4.173798,2.93942 l 0.954417,0.19104 0.0066,-2.3625 c 0.01068,-3.82858 1.422318,-6.00326 4.943412,-7.61551 2.252631,-1.03143 4.740927,-1.59093 10.65,-2.39467 2.820606,-0.38365 6.302355,-1.10604 8.85,-1.83618 5.879073,-1.68493 8.457654,-1.67492 9.000333,0.0349 0.264969,0.83485 -2.686932,8.01228 -6.538845,15.89896 -4.716132,9.65612 -6.878385,12.82083 -10.746267,15.72837 -2.955594,2.22176 -6.641319,3.78472 -10.305297,4.37004 -2.423262,0.38712 -6.898812,-0.20386 -9.788736,-1.29255 -5.679978,-2.13978 -13.741557,-7.04752 -16.538055,-10.06807 -9.314523,-10.0608 -13.132386,-22.74551 -10.256655,-34.07736 0.949131,-3.74007 4.79238,-10.47604 8.611395,-15.093 4.819392,-5.82635 11.931054,-10.31813 20.912127,-13.20826 4.522665,-1.4554 8.310399,-2.31495 18.007221,-4.08639 11.888805,-2.17187 12.667647,-2.22346 27.607512,-1.82862 10.393458,0.27469 12.571356,0.0634 18.809871,-1.82465 8.075661,-2.44409 14.628576,-5.36577 21.000374,-9.36324 11.09087,-6.95805 13.80789,-7.54223 18.37502,-3.95073 1.26941,0.99824 3.59761,2.35878 7.8,4.55812 1.7325,0.90672 4.12695,2.2812 5.32101,3.05441 4.70991,3.0499 6.45107,3.41248 10.91454,2.27285 3.45472,-0.88207 11.66313,-4.3109 19.76445,-8.25604 3.8775,-1.88824 7.48101,-3.51638 8.00778,-3.61808 1.62612,-0.31394 3.9306,0.46399 9.54222,3.22124 8.50668,4.17972 13.8405,5.25561 24.6,4.96208 12.0465,-0.32863 19.39278,-1.86199 26.94066,-5.62323 5.69229,-2.83656 7.80387,-4.53774 16.63434,-13.40121 4.49625,-4.51306 8.175,-8.35634 8.175,-8.54062 0,-0.18428 0.0893,-0.24571 0.19857,-0.1365 0.1092,0.10921 0.61545,-0.11828 1.125,-0.50553 2.26302,-1.71994 3.38685,-2.03016 10.07643,-2.78153 5.57184,-0.62583 15.29364,-0.69692 20.7,-0.15138 2.0625,0.20813 6.44808,0.83742 9.74571,1.39844 3.29763,0.56101 6.10476,0.91097 6.23805,0.77769 0.35019,-0.3502 -2.23338,-3.11303 -3.92778,-4.20034 -1.82517,-1.17121 -4.01757,-1.62918 -11.60598,-2.4244 -9.12162,-0.95588 -12.97023,-1.19727 -19.20786,-1.20471 -6.82164,-0.008 -9.43503,0.27959 -14.99214,1.65054 -2.85804,0.70509 -6.93183,1.36484 -12.75,2.06486 -6.49377,0.7813 -11.03001,1.54306 -18.86214,3.16744 -5.67165,1.17631 -12.75915,2.59851 -15.75,3.16044 -4.31178,0.81012 -7.02204,1.55445 -13.08786,3.59436 -4.2075,1.41497 -11.10768,3.64943 -15.33369,4.96546 -5.05272,1.57348 -9.56934,3.2173 -13.19058,4.80071 -3.0288,1.32436 -8.84529,3.68802 -12.92559,5.25258 -4.08028,1.56456 -8.02467,3.1044 -8.76529,3.42187 -0.74063,0.31747 -2.15251,0.73577 -3.13751,0.92956 -3.40734,0.67035 -5.66739,-0.68661 -9.8098,-5.88995 -1.55966,-1.95909 -3.32884,-3.68077 -5.97505,-5.8146 -5.13852,-4.14355 -7.02525,-6.83785 -7.99012,-11.41007 -0.50246,-2.38103 -0.17823,-7.48195 0.62927,-9.9 0.90446,-2.70838 2.36347,-5.70545 2.87261,-5.90083 0.23416,-0.0899 0.42574,-0.39488 0.42574,-0.67785 0,-0.28297 0.68467,-1.50837 1.5215,-2.72311 5.79766,-8.41596 19.09781,-21.59339 28.9285,-28.66158 5.73672,-4.12467 18.61293,-9.41145 25.88721,-10.6289 2.01141,-0.33664 2.46957,-0.30508 5.7,0.39263 2.50503,0.54105 5.66439,0.9004 11.01279,1.25261 l 7.5,0.49392 6.15,2.07365 c 3.3825,1.14051 7.2975,2.34402 8.7,2.67446 2.65296,0.62505 4.8,0.78448 4.8,0.35643 0,-1.11684 -4.66953,-6.25628 -8.78313,-9.66697 -3.34026,-2.76952 -5.10318,-3.77417 -8.16687,-4.65412 -3.06075,-0.8791 -3.83901,-1.38561 -3.13929,-2.043128 0.24162,-0.227031 2.29176,-1.236825 4.55589,-2.243984 8.02326,-3.569004 10.05396,-3.982143 15.98718,-3.252537 13.27671,1.632639 26.8707,6.969279 35.00004,13.740079 1.90464,1.58634 2.17287,1.53333 1.94574,-0.38456 -0.22158,-1.87071 -1.83432,-5.37124 -3.62562,-7.869588 -2.38653,-3.328457 -7.18689,-7.553178 -12.21585,-10.750989 -0.93054,-0.591717 -1.77942,-1.217421 -1.88634,-1.390452 -0.2586,-0.418419 0.80193,-2.456553 1.97124,-3.78831 2.67018,-3.041154 7.63839,-4.32327 14.44068,-3.726612 12.76158,1.119372 28.67673,7.217133 37.33794,14.305737 1.09809,0.898722 1.29828,0.971251 1.467,0.53154 0.26397,-0.687854 -0.60723,-3.715359 -1.68156,-5.843562 -1.2837,-2.54301 -4.22469,-6.306825 -6.69504,-8.568195 -1.18911,-1.088511 -4.08939,-3.262506 -6.44511,-4.831098 -5.80596,-3.866034 -6.94545,-5.629275 -4.47063,-6.917856 1.38567,-0.721493 5.82729,-0.821262 13.40373,-0.30108 4.84725,0.332802 8.16459,0.38119 13.35,0.194727 17.17737,-0.617676 27.70329,-0.936138 32.59764,-0.986241 5.27115,-0.05396 5.30166,-0.05048 6.09924,0.695766 1.39383,1.304181 1.19415,2.022132 -4.04682,14.550144 -3.41241,8.157033 -4.46241,11.513931 -5.22078,16.690929 -1.20552,8.22966 -1.36776,20.02251 -0.33345,24.24059 0.63297,2.58146 2.98014,10.15282 3.95823,12.76834 2.14893,5.74636 4.4274,8.99308 12.49914,17.81072 4.6083,5.03414 6.91611,6.71478 13.15182,9.57768 4.20831,1.93209 8.31213,3.2355 13.30368,4.22537 12.74517,2.52747 22.71918,0.98445 29.66175,-4.58881 2.40018,-1.92679 3.72423,-3.60036 6.20136,-7.83836 0.98217,-1.68033 2.78685,-4.35944 4.0104,-5.95357 3.12258,-4.06825 3.32562,-4.77515 3.28413,-11.43303 -0.0382,-6.13365 -0.92319,-13.91542 -1.90782,-16.77603 -2.17809,-6.32788 -10.56411,-15.31755 -16.65396,-17.85276 -4.77102,-1.98619 -14.47272,-3.87588 -17.70456,-3.44849 -2.04903,0.27097 -4.38186,1.17916 -6.99114,2.72171 -5.92266,3.50133 -9.47493,7.4459 -11.37663,12.6331 -1.49748,4.08457 -1.17039,10.80482 0.71667,14.72391 1.49388,3.1025 6.10506,7.18336 9.68898,8.57464 0.73581,0.28566 2.22081,0.58778 3.3,0.67139 1.82856,0.14167 2.07252,0.084 3.58419,-0.84773 2.33943,-1.44189 3.46296,-3.51937 3.45657,-6.39149 -0.006,-2.8155 -0.90465,-4.68013 -3.81108,-7.90988 -2.76477,-3.07233 -3.94092,-5.10378 -3.66975,-6.33838 0.231,-1.05175 2.2086,-2.92022 3.36963,-3.1837 2.41131,-0.54721 4.31409,-1.06793 5.90454,-1.61584 2.1297,-0.7337 3.93576,-0.76899 6.99678,-0.13672 8.31819,1.71817 14.35449,7.16955 15.88755,14.34807 0.96267,4.50776 0.0607,9.64562 -2.95146,16.81194 -3.28893,7.82479 -5.22972,10.87803 -7.72317,12.15009 -1.37883,0.70344 -12.2718,2.04962 -18.74706,2.3168 -5.4273,0.22395 -5.48733,0.20975 -12.23571,-2.89494 -14.69472,-6.7605 -21.42342,-16.01447 -25.19859,-34.65569 -1.20345,-5.94247 -1.21464,-6.05898 -1.16619,-12.15 0.0376,-4.73036 0.14688,-6.3002 0.47337,-6.80068 0.30663,-0.47005 0.37692,-1.17797 0.2532,-2.550004 -0.22629,-2.50911 0.33714,-4.817319 2.60997,-10.692357 2.12664,-5.497134 4.80999,-11.058876 6.84606,-14.189829 2.97846,-4.580061 4.17159,-6.476364 5.35887,-8.517132 0.67197,-1.155 1.60485,-2.463915 2.07309,-2.908698 1.21338,-1.152639 3.71391,-2.178522 8.5974,-3.527211 2.33964,-0.646149 5.50857,-1.653987 7.04202,-2.239641 3.49113,-1.333311 5.63412,-1.889367 8.31189,-2.156751 1.87254,-0.186978 2.24514,-0.336849 3.43989,-1.383627 2.02776,-1.776636 4.71573,-2.918103 14.56011,-6.183117 9.34476,-3.099306 16.58652,-5.85084 20.13543,-7.650528 1.13553,-0.575826 5.40819,-3.27792 9.49485,-6.00465 4.22655,-2.820079 9.01254,-5.74205 11.1,-6.776827 3.57618,-1.77276 7.24866,-2.963903 8.11419,-2.631769 0.44325,0.170092 0.89052,1.834203 5.33847,19.862819 2.08572,8.453886 2.4252,10.223253 2.84358,14.82045 0.429,4.713831 0.55212,5.336811 1.26861,6.419499 0.76332,1.153446 0.7953,1.371354 0.84063,5.72955 0.0258,2.491776 0.14082,9.458001 0.25527,15.480501 0.20169,10.611228 0.18402,11.149551 -0.57036,17.400002 -1.9086,15.81394 -4.98144,28.85028 -10.57167,44.84974 -2.63229,7.53373 -4.6953,12.32203 -10.27233,23.84232 -6.35505,13.12744 -9.12582,17.83139 -16.92948,28.74128 -2.62929,3.67584 -4.698,6.76584 -4.59717,6.86667 0.3066,0.3066 3.40452,-1.71931 6.30609,-4.12393 4.41441,-3.65834 7.59453,-7.22155 13.35567,-14.96453 7.7097,-10.36189 11.68476,-17.33286 14.39799,-25.2494 0.81285,-2.37168 2.08827,-5.45965 2.83425,-6.86215 0.8586,-1.61426 2.02254,-4.69672 3.17184,-8.4 3.09117,-9.96037 4.00572,-14.65659 4.70313,-24.15 0.49308,-6.71223 0.90963,-8.99976 2.07687,-11.40575 0.73653,-1.51817 1.77177,-2.84425 2.22045,-2.84425 0.24135,0 3.36243,6.58003 4.48236,9.45 0.8061,2.06574 2.87292,6.25488 3.5847,7.26562 2.28123,3.23948 5.32653,8.85749 8.03013,14.81414 3.1254,6.88592 3.19668,7.09407 5.8662,17.1327 2.23173,8.39232 2.77533,10.87834 3.12141,14.27481 0.23046,2.262 0.79509,7.75773 1.25475,12.21273 1.66359,16.12367 0.79512,26.17833 -3.66663,42.45 -1.35507,4.94189 -6.17619,20.46548 -9.43812,30.39002 -0.70827,2.15487 -0.44022,2.34369 1.83045,1.28934 2.97357,-1.38073 9.85332,-5.43123 13.06611,-7.69275 5.20857,-3.66639 8.07999,-7.36458 12.80091,-16.48661 4.81977,-9.31311 8.32101,-17.9728 9.33966,-23.1 0.27867,-1.4025 0.95856,-4.1025 1.51089,-6 1.32627,-4.55614 3.01206,-18.53467 2.7135,-22.5 -0.45861,-6.09094 -1.16736,-9.81324 -3.77013,-19.8 -0.79554,-3.0525 -1.67064,-6.9675 -1.94466,-8.7 -0.27402,-1.7325 -0.95097,-4.905 -1.50432,-7.05 -0.55338,-2.145 -1.16106,-4.96139 -1.35045,-6.25865 -0.18939,-1.29725 -0.8028,-3.79475 -1.36317,-5.55 -1.12923,-3.53705 -1.15056,-3.64135 -0.74526,-3.64135 0.57132,0 9.7776,12.71218 11.18904,15.45 0.25521,0.495 1.70466,4.0725 3.22101,7.95 7.82952,20.02114 8.31243,22.18288 8.77923,39.3 0.40506,14.85377 0.43197,19.5587 0.15669,27.39813 -0.24459,6.96469 -0.17718,7.16541 1.48245,4.41464 0.62955,-1.04347 1.17828,-2.59469 1.58463,-4.4795 0.34185,-1.5858 1.42818,-6.26159 2.41407,-10.39065 2.21151,-9.26227 2.62716,-11.55367 2.99004,-16.484 0.22131,-3.00664 0.18537,-4.81413 -0.15807,-7.95 -0.4347,-3.96908 -0.31764,-6.60731 0.29775,-6.70999 0.16032,-0.0268 0.67662,0.89637 1.14738,2.05137 0.47073,1.155 1.58568,3.79813 2.47764,5.87362 2.37771,5.53255 4.39197,13.30143 5.67198,21.87638 0.25863,1.7325 0.62547,4.1625 0.81519,5.4 0.48285,3.14924 0.48024,19.1189 -0.004,25.65 l -0.40056,5.4 -4.34907,15.3 c -2.39199,8.415 -4.96032,17.19 -5.70741,19.5 -3.26247,10.08738 -7.66044,19.91714 -11.60442,25.93656 -4.69035,7.15857 -12.86169,17.19051 -19.08345,23.42871 -3.44106,3.45015 -4.395,4.23015 -6.30456,5.15487 -1.2375,0.59928 -2.76168,1.18221 -3.38709,1.2954 -0.94521,0.17106 -1.24341,0.4149 -1.76715,1.44513 -0.85917,1.69002 -4.545,5.28963 -8.34576,8.15052 -1.7325,1.30407 -5.58,4.40883 -8.55,6.89946 -5.08656,4.26561 -5.81346,4.75965 -12.52359,8.51166 -3.918,2.19075 -8.4405,4.48962 -10.05,5.10858 -1.60953,0.61896 -4.78371,2.0559 -7.05372,3.19326 -4.20813,2.10834 -5.02587,2.84286 -4.00008,3.59292 0.79776,0.58332 4.69533,1.03293 8.95458,1.03293 2.17398,0 5.84562,0.15414 8.15922,0.34251 4.67412,0.38058 7.08735,0.17868 13.51359,-1.13052 1.98,-0.40338 5.48202,-1.01016 7.78227,-1.34841 4.58772,-0.67458 10.65606,-2.36886 17.19267,-4.80009 5.20149,-1.93467 5.88774,-2.28621 12.33054,-6.31632 2.91198,-1.82154 6.71202,-4.19253 8.44452,-5.2689 3.85035,-2.39214 8.75421,-5.92524 11.4924,-8.27997 2.84601,-2.4474 14.96463,-15.47517 18.59838,-19.99365 6.60468,-8.21268 10.49724,-15.12897 15.47892,-27.50282 1.74516,-4.33473 1.84656,-4.72893 2.1606,-8.4 0.18123,-2.11851 0.39546,-10.33353 0.47604,-18.25561 0.13824,-13.58791 0.11157,-14.59897 -0.4707,-17.85 -0.33951,-1.89542 -0.76404,-5.46491 -0.94341,-7.9322 -0.38379,-5.27896 -0.60798,-6.42413 -2.98206,-15.23293 -0.99036,-3.6746 -2.07297,-7.96359 -2.40585,-9.53109 -0.77202,-3.63535 -1.10619,-7.2 -0.675,-7.2 0.63795,0 2.00589,2.02471 3.44571,5.1 0.81114,1.7325 3.07764,6.0525 5.03664,9.6 2.22927,4.03692 4.03125,7.73675 4.81659,9.88939 0.69009,1.89166 2.76477,6.41416 4.61034,10.05 1.84557,3.63583 3.64884,7.52302 4.00728,8.6382 1.37025,4.26326 3.16173,16.10684 4.11774,27.22241 0.59772,6.94997 0.47178,16.39907 -0.27219,20.42067 -0.60357,3.26265 -7.27389,25.53189 -8.85924,29.57706 -1.64607,4.20006 -2.38809,5.58621 -4.5543,8.50779 -1.03035,1.38963 -2.68773,4.08312 -3.68304,5.98554 -0.99534,1.90242 -3.20136,5.45439 -4.90227,7.8933 -1.70091,2.43891 -3.09258,4.57425 -3.09258,4.74522 0,0.85182 4.06566,-1.37703 7.35,-4.02936 1.32,-1.06602 5.03124,-4.67424 8.24721,-8.01831 5.19951,-5.40663 5.90172,-6.25635 6.33945,-7.67103 0.285,-0.92112 1.37349,-2.82657 2.58546,-4.52589 1.15128,-1.61424 3.76602,-5.70249 5.81055,-9.08499 4.15818,-6.87933 4.1316,-6.86925 3.59406,-1.36434 -0.1797,1.84035 -0.32673,5.05233 -0.32673,7.13772 0,2.08536 -0.27369,6.12822 -0.60819,8.9841 -0.33447,2.85588 -0.74508,6.87051 -0.91242,8.92143 -0.65061,7.97427 -2.66544,17.70984 -5.18859,25.07109 -2.1768,6.35079 -4.28169,10.69953 -9.5055,19.63833 -2.87679,4.92267 -4.10211,6.34068 -10.63191,12.30384 -12.23358,11.17197 -21.23892,17.67216 -28.77408,20.76954 -1.98726,0.81687 -5.11056,2.28258 -6.94068,3.25713 -2.64573,1.40883 -3.93492,1.89687 -6.29208,2.38188 -1.6305,0.33549 -5.53674,1.49466 -8.68056,2.57598 -3.14379,1.08129 -7.67349,2.43582 -10.06599,3.01002 -2.3925,0.5742 -6.78,1.78857 -9.75,2.69859 -2.97,0.91005 -7.2225,1.97694 -9.45,2.3709 -2.2275,0.39396 -7.695,1.46475 -12.15,2.37954 l -8.1,1.66323 -7.65,-0.0132 c -10.82964,-0.0186 -30.47163,-0.7869 -34.05,-1.332 -4.22679,-0.64389 -14.85,-0.97107 -14.85,-0.45735 0,0.60441 5.41173,6.86094 8.36763,9.67386 3.43557,3.2694 6.02826,4.98816 12.25311,8.12304 11.73912,5.91183 26.58465,10.89651 39.37926,13.22232 5.67108,1.03089 10.0095,1.54992 19.35,2.31495 7.33563,0.60084 8.62374,0.63027 13.65,0.312 10.69812,-0.67746 17.06367,-2.06601 28.60665,-6.24 11.00217,-3.97845 14.17155,-5.94336 21.66708,-13.43301 4.63449,-4.63086 11.87922,-12.75771 15.72996,-17.64525 5.70399,-7.23972 9.58626,-12.54927 11.96946,-16.36989 1.48449,-2.37987 7.36626,-14.83335 10.0149,-21.20457 0.96048,-2.31042 1.59753,-3.36204 2.77152,-4.575 0.83841,-0.86625 1.7433,-1.575 2.01084,-1.575 0.31356,0 0.70128,0.57411 1.0908,1.6152 1.87428,5.00946 2.23908,8.6265 2.05194,20.34495 -0.1329,8.32155 -0.23616,9.86769 -0.90768,13.58985 -0.41673,2.31 -1.04487,6.09 -1.39581,8.4 -1.69947,11.18586 -1.33317,10.5801 -20.58861,34.05 -7.2549,8.84277 -9.16839,10.99029 -11.27634,12.65541 -1.39629,1.10298 -2.73027,2.2362 -2.96436,2.51829 -0.38712,0.46644 -0.35799,0.49227 0.32199,0.2853 1.61628,-0.49185 10.29735,-5.10174 13.23816,-7.02978 1.77735,-1.16523 5.01738,-3.78414 7.56279,-6.11298 5.68233,-5.19882 9.49671,-7.80603 9.49671,-6.49122 0,0.8724 -1.39641,5.6094 -2.72763,9.25281 -2.9589,8.09835 -4.59042,11.93469 -6.51618,15.32217 -1.07868,1.8975 -2.39739,4.51197 -2.93043,5.80992 -0.85209,2.07489 -1.12656,2.44863 -2.27244,3.09453 -1.91928,1.08183 -3.5172,2.74482 -7.2984,7.59555 -3.89343,4.9947 -5.44377,6.58116 -9.0882,9.3 -1.4376,1.0725 -3.08697,2.59512 -3.66528,3.38361 -0.84717,1.15506 -2.59602,2.44428 -9.00144,6.63564 -7.08372,4.63521 -8.52855,5.45199 -13.25943,7.49577 -10.13388,4.37787 -15.08886,6.18435 -16.98093,6.19089 -1.12296,0.004 -2.58471,0.31563 -4.25964,0.90846 -3.86733,1.36875 -7.04352,1.74636 -17.55,2.08647 -5.28,0.17091 -12.5025,0.52527 -16.05,0.78753 -4.614,0.34104 -13.49514,0.54186 -31.2,0.70542 -27.33873,0.25257 -25.07097,0.10755 -39.96003,2.55567 -4.50447,0.74064 -10.95747,1.62243 -14.33997,1.95957 -3.3825,0.33714 -7.5675,0.87558 -9.3,1.19655 -1.7325,0.32097 -5.5125,0.86043 -8.4,1.19883 -5.96154,0.69864 -22.47099,4.40265 -42.6,9.55764 -11.19297,2.86647 -11.63811,3.00837 -14.4,4.59057 -1.5675,0.89799 -4.1325,2.35641 -5.7,3.24096 -3.80997,2.14998 -9.57318,5.91666 -15.6,10.1958 -2.7225,1.93299 -6.9075,4.77366 -9.3,6.31257 -2.3925,1.53891 -6.51,4.36047 -9.15,6.27015 -2.81484,2.03616 -7.25904,4.84623 -10.74585,6.79464 -4.24587,2.37255 -7.99197,4.80123 -13.10232,8.49459 -8.51685,6.15528 -13.18755,10.00317 -19.10004,15.73539 -7.56501,7.33434 -12.94101,13.60434 -22.29567,26.00328 l -5.7717,7.65 -4.18482,8.35812 c -5.09346,10.17291 -12.1716,26.30523 -13.24689,30.19188 -1.55025,5.60361 -1.92474,7.98204 -3.49416,22.19361 l -1.20855,10.94361 0,12.75639 c 0,11.58534 0.0675,13.37604 0.74535,19.50639 0.41046,3.7125 1.02315,9.315 1.36152,12.45 1.39251,12.90213 2.51871,18.75606 7.52172,39.09837 1.60977,6.54534 2.38734,8.54655 6.41781,16.51743 1.88673,3.73131 3.85431,7.9992 4.37244,9.4842 1.09068,3.12609 1.75323,4.27875 6.89763,12 2.08872,3.135 4.44756,6.83286 5.24184,8.21745 2.20524,3.84417 3.35859,6.93255 2.58894,6.93255 -0.13956,0 -1.65831,-0.9366 -3.375,-2.08137 z M 221.37673,390.9898 c -0.0231,-1.45395 -0.44967,-3.2322 -1.75638,-7.32045 -0.94926,-2.97 -2.26353,-7.0875 -2.92059,-9.15 -3.03201,-9.51762 -6.2202,-15.54219 -8.98017,-16.96941 -1.67484,-0.8661 -1.87431,-0.6906 -3.37161,2.96658 -0.76494,1.86846 -1.39062,3.52221 -1.39035,3.675 2.7e-4,0.15282 0.52101,0.76758 1.15719,1.36614 0.63618,0.59859 1.92723,2.2704 2.86896,3.71514 0.94173,1.44477 2.69703,3.92721 3.90066,5.51658 2.86896,3.78837 3.80184,5.4897 5.41455,9.87495 0.73671,2.00331 1.63167,4.21896 1.98876,4.92369 0.88719,1.75095 2.36769,3.58287 2.78001,3.43989 0.20943,-0.0726 0.32775,-0.85311 0.30897,-2.03811 z m 131.72043,-17.07627 c 8.34063,-1.76595 21.40731,-8.52621 27.30096,-14.1246 5.72826,-5.44128 8.87487,-11.37282 13.67052,-25.76958 2.33826,-7.01955 2.8353,-11.52045 2.59755,-23.52225 -0.18063,-9.11899 -0.73419,-14.77336 -2.03331,-20.76961 -1.31604,-6.07418 -6.62157,-20.02199 -9.39636,-24.70212 -0.67614,-1.14047 -3.39864,-4.54463 -6.04998,-7.5648 -2.65134,-3.02017 -6.99201,-8.12372 -9.6459,-11.34122 -5.14152,-6.23336 -6.75201,-7.74783 -13.01337,-12.23728 -5.30997,-3.80731 -11.75889,-7.6226 -20.82012,-12.31749 -9.99822,-5.18039 -11.82885,-6.03195 -16.2,-7.5359 -8.74785,-3.0098 -26.56152,-7.51654 -30.0594,-7.60483 -2.38053,-0.0601 -3.47187,0.42545 -2.16123,0.96153 0.39633,0.16212 3.01563,1.19444 5.82063,2.29404 9.36189,3.67001 23.20521,11.3939 29.80152,16.62777 1.75917,1.39581 5.49348,4.2842 8.29848,6.41865 17.01969,12.95101 24.47865,21.63985 31.07043,36.19351 3.12537,6.90034 3.8355,9.14429 4.34148,13.71842 0.25134,2.27237 0.91893,6.89908 1.48347,10.28158 1.92315,11.52231 2.07972,13.10277 2.08017,21 0,7.8636 -0.26133,10.22646 -1.80963,16.33443 -1.50516,5.93781 -3.44136,10.14474 -6.35847,13.81557 -3.41721,4.30014 -12.10368,12.48891 -16.33905,15.40293 -1.58625,1.09137 -16.44678,7.97001 -18.29133,8.46672 -0.696,0.18741 -2.75664,0.44307 -4.5792,0.56817 -2.1345,0.14649 -3.66339,0.40821 -4.29624,0.73548 -0.95286,0.49275 -1.49826,1.23006 -1.1601,1.56825 0.24537,0.24534 8.95113,2.39364 11.98263,2.95689 6.41979,1.19277 18.4716,1.26669 23.76585,0.14574 z M 288.46501,358.15 c 2.99277,-0.56769 6.89571,-1.9248 9.94764,-3.45885 1.26801,-0.63738 5.92551,-3.57909 10.35,-6.53715 11.96124,-7.99689 13.96752,-10.4106 17.48394,-21.03465 6.54429,-19.77216 6.4716,-34.92591 -0.23478,-48.92632 -4.14684,-8.65707 -12.13983,-18.81037 -21.44799,-27.24491 -2.25867,-2.04668 -4.10667,-3.83543 -4.10667,-3.975 0,-0.13957 -0.20601,-0.25377 -0.4578,-0.25377 -0.5544,0 -6.27873,-4.11262 -9.59448,-6.89311 -1.32126,-1.10796 -3.07626,-2.31206 -3.9,-2.67577 -0.82374,-0.36371 -2.33409,-1.20554 -3.35628,-1.87074 -1.84629,-1.20146 -10.74654,-5.33887 -15.68964,-7.29356 -5.55762,-2.19771 -18.09177,-5.66371 -25.9518,-7.17633 -5.65977,-1.08918 -9.00987,-1.39049 -15.46017,-1.39049 -5.29884,0 -5.72625,0.0398 -5.63391,0.525 0.17886,0.93999 2.78739,2.35231 6.99495,3.78724 6.5565,2.23599 16.14318,6.83487 23.68998,11.36442 2.48004,1.48851 6.73665,3.95205 9.45915,5.47453 5.33427,2.98305 11.32842,6.55792 13.49226,8.04668 0.73962,0.50887 2.90016,2.28582 4.80123,3.94877 1.9011,1.66296 5.22831,4.53311 7.39383,6.37809 6.58287,5.60851 8.78961,8.36561 14.90445,18.62149 2.85042,4.78079 4.56,8.46469 5.80254,12.50378 l 0.83061,2.7 0.11457,11.55 c 0.12699,12.80043 0.0342,13.85631 -1.64745,18.75 -2.92695,8.51745 -9.71853,18.83121 -15.61194,23.70846 -2.90955,2.40786 -10.78872,7.33497 -14.51316,9.07557 -3.03756,1.41957 -3.84975,1.98315 -3.44349,2.38944 0.33759,0.33756 5.98545,0.62724 9.6903,0.49701 2.01504,-0.0708 4.7574,-0.33624 6.09411,-0.58983 z m -82.72095,-13.70565 c 2.39343,-5.5983 2.06559,-11.33265 -1.01937,-17.83047 -0.96603,-2.03472 -1.50078,-2.73969 -3.12093,-4.11414 -5.50215,-4.66782 -13.54773,-7.49154 -23.24928,-8.15973 -3.53037,-0.24315 -3.59427,-0.16521 -1.90266,2.32068 1.37934,2.02701 7.61703,9.52908 10.56678,12.70866 0.45921,0.495 2.50101,2.79 4.53735,5.1 4.88046,5.53638 11.86095,12.45 12.57039,12.45 0.41541,0 0.83226,-0.63774 1.61772,-2.475 z m 27.22995,-24.74661 c -1.02066,-2.53323 -3.02172,-5.94867 -6.4614,-11.02839 -5.56452,-8.2177 -7.94421,-11.37403 -8.97786,-11.908 -0.54084,-0.2794 -1.97547,-1.60849 -3.18801,-2.95354 -4.6998,-5.21339 -11.84487,-10.53032 -21.73959,-16.1773 -8.08392,-4.61355 -15.85062,-8.50596 -22.35,-11.20111 -5.60808,-2.32553 -22.17849,-8.1873 -24.9,-8.80834 -2.60457,-0.59436 -30.20021,-1.16584 -32.7,-0.67719 -4.95931,0.96942 -11.21216,3.56332 -10.44326,4.33222 0.0643,0.0643 5.51152,0.52405 12.10504,1.02177 7.11285,0.53692 12.65924,1.09317 13.63822,1.36779 2.28544,0.6411 11.29802,2.6553 18.3,4.08981 10.20126,2.08995 27.32088,8.22524 38.85,13.92297 6.77274,3.3471 12.23622,6.79467 20.73039,13.08129 3.44829,2.5521 7.17339,5.27606 8.27802,6.05322 4.7631,3.35113 6.63309,5.38975 11.39523,12.42274 3.14607,4.64631 7.23399,9.11604 7.81023,8.5398 0.2658,-0.2658 0.18279,-0.76275 -0.34701,-2.07774 z m -72.81882,-6.09312 c 3.18687,-1.0653 4.10196,-1.5873 4.10196,-2.33988 0,-0.79419 -0.67074,-1.30239 -8.25,-6.25049 -8.89151,-5.8048 -10.53454,-6.78291 -15.92814,-9.48219 -14.17438,-7.0937 -31.06731,-13.54952 -39.40872,-15.06047 -2.385267,-0.43207 -6.097767,-1.24429 -8.249997,-1.80494 -4.348587,-1.1328 -9.135741,-2.0747 -9.367356,-1.84309 -0.08281,0.0828 -0.05928,0.4382 0.0523,0.78975 0.297948,0.93876 2.21127,2.20328 5.023446,3.32002 1.363158,0.54133 4.529907,1.97463 7.037223,3.18512 2.507316,1.2105 4.637469,2.2009 4.73367,2.2009 0.0962,0 6.549764,3.06186 14.341244,6.80413 15.61306,7.499 23.61524,11.80158 35.58016,19.13057 4.74941,2.90922 5.41226,2.99583 10.33421,1.35057 z m 77.4621,-45.45729 c -0.26451,-0.63304 -0.99531,-1.83205 -1.62405,-2.66448 -1.68663,-2.23312 -10.60827,-11.03257 -13.434,-13.25003 -5.3121,-4.1686 -16.49739,-10.2428 -23.32011,-12.66402 -2.19174,-0.77779 -5.93577,-1.7114 -10.4259,-2.59978 -3.85335,-0.76239 -9.37224,-1.91512 -12.26424,-2.56164 -7.58718,-1.69614 -9.25356,-1.88253 -17.09184,-1.91175 -7.4181,-0.0277 -8.31365,0.0765 -13.2,1.53594 -3.77695,1.12805 -6,2.3449 -6,3.28427 0,0.32768 1.46839,0.40351 7.81392,0.40351 7.35996,0 8.23926,0.0615 15.13542,1.05894 l 7.3215,1.05894 12.41991,3.87793 c 9.48171,2.96052 13.33536,4.31081 16.28958,5.70773 2.12832,1.0064 7.17717,3.2634 11.21967,5.01557 7.51974,3.25932 8.06859,3.56403 22.42221,12.44815 2.5923,1.6045 4.827,2.80351 4.96605,2.66448 0.13902,-0.13903 0.0364,-0.77072 -0.22812,-1.40376 z"
           style="fill:#010000" />
      </g>
    </g>
  </g>
</svg>
